<?xml version="1.0" encoding="UTF-8"?>
<svg width="24px" height="24px" viewBox="0 0 24 24" version="1.1" xmlns="http://www.w3.org/2000/svg" xmlns:xlink="http://www.w3.org/1999/xlink">
    <!-- Generator: Sketch 55.2 (78181) - https://sketchapp.com -->
    <title>icons/24/copy</title>
    <desc>Created with Sketch.</desc>
    <g id="icons/24/copy" stroke="none" stroke-width="1" fill="none" fill-rule="evenodd">
        <g id="icons/32/net-profit" fill="#D8D8D8" fill-opacity="0" fill-rule="nonzero">
            <rect id="bound" x="0" y="0" width="24" height="24"></rect>
        </g>
        <g id="copy" transform="translate(4.000000, 2.000000)" fill="#8B8B8B">
            <path d="M10.4773176,4 L1.52268245,4 C0.682445759,4 0,4.68701911 0,5.53288657 L0,18.4671134 C0,19.3129809 0.682445759,20 1.52268245,20 L10.4773176,20 C11.3175542,20 12,19.3129809 12,18.4671134 L12,5.53288657 C11.9960552,4.68701911 11.3136095,4 10.4773176,4 Z M10.9309665,18.4631422 C10.9309665,18.7172996 10.7258383,18.9238024 10.4733728,18.9238024 L1.51873767,18.9238024 C1.26627219,18.9238024 1.06114398,18.7172996 1.06114398,18.4631422 L1.06114398,5.53288657 C1.06114398,5.27872921 1.26627219,5.07222636 1.51873767,5.07222636 L10.4733728,5.07222636 C10.7258383,5.07222636 10.9309665,5.27872921 10.9309665,5.53288657 L10.9309665,18.4631422 Z" id="Shape" fill-rule="nonzero"></path>
            <path d="M13.4773176,0 L4.52268245,0 C3.68244576,0 3,0.687019111 3,1.53288657 C3,1.83072723 3.23668639,2.06899975 3.53254438,2.06899975 C3.82840237,2.06899975 4.06508876,1.83072723 4.06508876,1.53288657 C4.06508876,1.27872921 4.27021696,1.07222636 4.52268245,1.07222636 L13.4773176,1.07222636 C13.729783,1.07222636 13.9349112,1.27872921 13.9349112,1.53288657 L13.9349112,14.4671134 C13.9349112,14.7212708 13.729783,14.9277736 13.4773176,14.9277736 C13.1814596,14.9277736 12.9447732,15.1660462 12.9447732,15.4638868 C12.9447732,15.7617275 13.1814596,16 13.4773176,16 C14.3175542,16 15,15.3129809 15,14.4671134 L15,1.53288657 C15,0.687019111 14.3175542,0 13.4773176,0 Z" id="Path"></path>
        </g>
    </g>
</svg>