<?xml version="1.0" encoding="UTF-8"?>
<svg width="32px" height="32px" viewBox="0 0 32 32" version="1.1" xmlns="http://www.w3.org/2000/svg" xmlns:xlink="http://www.w3.org/1999/xlink">
    <!-- Generator: Sketch 55.2 (78181) - https://sketchapp.com -->
    <title>@1x/icons/notification_white_ico</title>
    <desc>Created with Sketch.</desc>
    <g id="icons/notification_white_ico" stroke="none" stroke-width="1" fill="none" fill-rule="evenodd">
        <rect id="bound" fill-opacity="0" fill="#D8D8D8" x="0" y="0" width="32" height="32"></rect>
        <g id="notification-(1)" transform="translate(8.000000, 6.000000)" fill="#72777E">
            <path d="M15.9184673,16.1439626 L14.5483364,13.8614953 C13.9167103,12.808 13.5825421,11.6021682 13.5825421,10.3731963 L13.5825421,8.37383178 C13.5825421,5.29626168 11.0775701,2.79128972 8,2.79128972 C4.92242991,2.79128972 2.41745794,5.29626168 2.41745794,8.37383178 L2.41745794,10.3731963 C2.41745794,11.6021682 2.08328972,12.808 1.45166355,13.8614953 L0.0815327103,16.1439626 C0.00736448598,16.2667664 0.00575700935,16.4207103 0.0759626168,16.5451215 C0.146953271,16.6703178 0.28011215,16.7477009 0.423663551,16.7477009 L15.5762991,16.7477009 C15.7198505,16.7477009 15.8530467,16.6703551 15.924,16.5451215 C15.9942056,16.4206729 15.9926355,16.2667664 15.9184673,16.1439626 Z M1.12788785,15.9501682 L2.13514019,14.2714019 C2.84171963,13.0942804 3.21495327,11.7465047 3.21495327,10.3731963 L3.21495327,8.37383178 C3.21495327,5.7348785 5.36104673,3.58878505 8,3.58878505 C10.6389533,3.58878505 12.7850467,5.7348785 12.7850467,8.37383178 L12.7850467,10.3731963 C12.7850467,11.7465047 13.1582804,13.0942804 13.8640748,14.2714019 L14.8721121,15.9501682 L1.12788785,15.9501682 Z" id="Shape" fill-rule="nonzero"></path>
            <path d="M8,0 C7.12033645,0 6.40497196,0.715364486 6.40497196,1.59502804 L6.40497196,3.19005607 C6.40497196,3.41013084 6.58362617,3.58878505 6.80373832,3.58878505 C7.02385047,3.58878505 7.20250467,3.41013084 7.20250467,3.19001869 L7.20250467,1.59502804 C7.20250467,1.15480374 7.5597757,0.79753271 8,0.79753271 C8.4402243,0.79753271 8.79749533,1.15480374 8.79749533,1.59502804 L8.79749533,3.19005607 C8.79749533,3.41013084 8.97614953,3.58878505 9.19626168,3.58878505 C9.41637383,3.58878505 9.59502804,3.41013084 9.59502804,3.19001869 L9.59502804,1.59502804 C9.59502804,0.715364486 8.87966355,0 8,0 Z" id="Path"></path>
            <path d="M9.72579439,16.1471402 C9.61334579,15.9573458 9.37009346,15.8951402 9.17951402,16.0043738 C8.9888972,16.1160374 8.9251215,16.3608598 9.03674766,16.5506542 C9.14041121,16.7269159 9.19704673,16.938243 9.19704673,17.1463925 C9.19704673,17.8059439 8.66033645,18.3426542 8.00078505,18.3426542 C7.34123364,18.3426542 6.80452336,17.8059439 6.80452336,17.1463925 C6.80452336,16.938243 6.86115888,16.7269159 6.96482243,16.5506542 C7.07566355,16.3600374 7.01188785,16.116 6.82205607,16.0043738 C6.62986916,15.8951028 6.38740187,15.9573084 6.2757757,16.1471402 C6.09951402,16.4485981 6.00620561,16.7939065 6.00620561,17.1464299 C6.00620561,18.2461682 6.9002243,19.1401869 8,19.1401869 C9.0997757,19.1401869 9.99375701,18.2461682 9.99536449,17.1464299 C9.99536449,16.7939065 9.90205607,16.4485981 9.72579439,16.1471402 Z" id="Path"></path>
        </g>
    </g>
</svg>