<?xml version="1.0" encoding="UTF-8"?>
<svg width="32px" height="32px" viewBox="0 0 32 32" version="1.1" xmlns="http://www.w3.org/2000/svg" xmlns:xlink="http://www.w3.org/1999/xlink">
    <!-- Generator: Sketch 55.2 (78181) - https://sketchapp.com -->
    <title>@1x/icons/laporan_white_ico</title>
    <desc>Created with Sketch.</desc>
    <g id="icons/laporan_white_ico" stroke="none" stroke-width="1" fill="none" fill-rule="evenodd">
        <rect id="bound" fill-opacity="0" fill="#D8D8D8" x="0" y="0" width="32" height="32"></rect>
        <g id="Group-15" transform="translate(6.000000, 5.000000)" fill="#72777E">
            <path d="M9.17546422,13.0368312 C9.01987665,12.8815283 8.76781363,12.8815283 8.6120269,13.0368312 C8.45675799,13.1925722 8.45675799,13.4446258 8.6120269,13.6003668 C8.76781363,13.7556299 9.01987665,13.7556299 9.17546422,13.6003668 C9.33089246,13.4446258 9.33089246,13.1925722 9.17546422,13.0368312 Z" id="Fill-1"></path>
            <g id="Group-5" transform="translate(7.256637, 0.088496)">
                <path d="M7.88354335,4.29084143 C7.88354335,6.22666645 6.29960309,7.80160933 4.35263156,7.80160933 C2.40569928,7.80160933 0.82175902,6.22666645 0.82175902,4.29084143 C0.82175902,2.35517249 2.40569928,0.780229606 4.35263156,0.780229606 C6.29960309,0.780229606 7.88354335,2.35517249 7.88354335,4.29084143 M0.0372253233,4.29084143 C0.0372253233,6.65680644 1.9731305,8.58182333 4.35263156,8.58182333 C6.73217187,8.58182333 8.66807704,6.65680644 8.66807704,4.29084143 C8.66807704,1.92487643 6.73217187,1.56074014e-05 4.35263156,1.56074014e-05 C1.9731305,1.56074014e-05 0.0372253233,1.92487643 0.0372253233,4.29084143" id="Fill-3"></path>
            </g>
            <g id="Group-8" transform="translate(0.000000, 8.318584)">
                <path d="M2.524375,5.34616059 C2.65316406,5.21680926 2.85089844,5.19350484 3.00792969,5.29099894 C3.07550781,5.33235056 2.88144531,5.15489953 6.39035156,8.67422077 C6.54644531,8.83099599 6.53804688,9.08079274 6.39246094,9.22701428 L4.77839844,10.8240736 L0.941289062,6.94078743 L2.524375,5.34616059 Z M7.4196875,2.74328389 C8.01785156,2.74328389 8.59613281,2.86420012 9.13890625,3.10265853 C9.18835938,3.12443286 9.24160156,3.13561428 9.29546875,3.13561428 L13.7301172,3.13561428 C14.1535547,3.13561428 14.5112109,3.48243434 14.5112109,3.91996118 C14.5112109,4.35262313 14.1608984,4.70450425 13.7301172,4.70450425 L10.5439453,4.70450425 C10.3283203,4.70450425 10.1534766,4.88011133 10.1534766,5.0966777 C10.1534766,5.31336177 10.3283203,5.48885115 10.5439453,5.48885115 L13.7301172,5.48885115 C14.5914844,5.48885115 15.2921484,4.78508891 15.2921484,3.91996118 C15.2921484,3.85102873 15.2872656,3.78264555 15.2784375,3.71492932 C17.5075781,1.41348006 17.8219141,1.09012136 17.8353516,1.07403581 C18.1136719,0.744085959 18.6077344,0.702224307 18.9364063,0.980543481 C19.2653906,1.25992195 19.3070703,1.75586678 19.0279688,2.08766059 L15.5253125,6.29328537 C15.0138281,6.78644466 14.3423047,7.05785882 13.6324609,7.05785882 L8.44097656,7.05785882 C7.93222656,7.05785882 7.45066406,7.25323935 7.08539063,7.60774909 L6.75351563,7.92942077 L3.69410156,4.8568069 C4.40914063,3.50954437 5.75085938,2.74328389 7.4196875,2.74328389 L7.4196875,2.74328389 Z M4.49808594,11.6539308 C4.64945313,11.8072143 4.89589844,11.8089013 5.04925781,11.6571479 L6.94253906,9.78377032 C7.26421875,9.46072549 7.36203125,8.98243552 7.22058594,8.56664378 L7.6278125,8.17215558 C7.84710938,7.95943404 8.13578125,7.84220572 8.44097656,7.84220572 L13.6324609,7.84220572 C14.5534766,7.84220572 15.4239844,7.48695056 16.0839453,6.84192018 C16.1110938,6.81539864 15.8778125,7.09140307 19.6256641,2.59247209 C20.1815234,1.93198389 20.0983984,0.940094218 19.4401172,0.381180354 C18.7859766,-0.172554749 17.8060547,-0.0929901475 17.2486328,0.556198938 L14.9442578,2.93501575 C14.6532813,2.57532726 14.2095703,2.35111044 13.7301172,2.35111044 L9.37542969,2.35111044 C8.75574219,2.09072077 8.09824219,1.95893699 7.41984375,1.95893699 C5.539375,1.95893699 3.89734375,2.83124437 3.01617188,4.46679127 C2.64492188,4.39613257 2.25339844,4.50892755 1.97171875,4.79183699 L0.113945312,6.66321369 C-0.037734375,6.81602637 -0.038046875,7.06323375 0.113320312,7.21647799 L4.49808594,11.6539308 Z" id="Fill-6"></path>
            </g>
            <path d="M10.4644377,4.21744627 C10.5756033,4.21744627 10.6609021,4.19013906 10.7203726,4.13552465 C10.7798431,4.08091024 10.8096361,4.00809102 10.8096361,3.917067 L10.8096361,3.91099874 C10.8096361,3.80987424 10.7783804,3.73402089 10.716023,3.68343869 C10.6535501,3.6328964 10.5667886,3.60758534 10.455623,3.60758534 L10.0080737,3.60758534 L10.0080737,4.21744627 L10.4644377,4.21744627 Z M9.55752212,3.18584071 L10.4936918,3.18584071 C10.753014,3.18584071 10.9519804,3.25766185 11.0904754,3.40126422 C11.2074918,3.52262958 11.2659615,3.68447668 11.2659615,3.88672566 L11.2659615,3.89279393 C11.2659615,4.0647415 11.2254677,4.20483066 11.1445955,4.31302149 C11.0636078,4.42125225 10.9577927,4.50065873 10.8271885,4.55120101 L11.3274336,5.30973451 L10.8008213,5.30973451 L10.3620483,4.6300885 L10.356159,4.6300885 L10.0080737,4.6300885 L10.0080737,5.30973451 L9.55752212,5.30973451 L9.55752212,3.18584071 Z" id="Fill-9"></path>
            <path d="M12.5176441,4.91288325 C12.5714016,4.91288325 12.6216225,4.90235403 12.6684638,4.8812956 C12.7151873,4.86023716 12.7565664,4.83015368 12.7924048,4.79104515 C12.8282038,4.75193662 12.8566152,4.70530723 12.8775209,4.65115696 C12.8983873,4.59700669 12.9088794,4.53585014 12.9088794,4.46764772 L12.9088794,4.46163103 C12.9088794,4.39544737 12.8983873,4.3348054 12.8775209,4.27962596 C12.8566152,4.22448611 12.8282038,4.17734212 12.7924048,4.1382336 C12.7565664,4.09912507 12.7151873,4.06904159 12.6684638,4.04798315 C12.6216225,4.02692472 12.5714016,4.0163955 12.5176441,4.0163955 C12.4638866,4.0163955 12.4135871,4.02692472 12.3668244,4.04798315 C12.3200223,4.06904159 12.2791933,4.09912507 12.2443767,4.1382336 C12.2095207,4.17734212 12.1816596,4.22448611 12.1607539,4.27962596 C12.1398482,4.3348054 12.1293953,4.39544737 12.1293953,4.46163103 L12.1293953,4.46764772 C12.1293953,4.53383138 12.1398482,4.59451293 12.1607539,4.64965279 C12.1816596,4.70483223 12.2095207,4.75193662 12.2443767,4.79104515 C12.2791933,4.83015368 12.3200223,4.86023716 12.3668244,4.8812956 C12.4135871,4.90235403 12.4638866,4.91288325 12.5176441,4.91288325 L12.5176441,4.91288325 Z M11.6814159,3.65840207 L12.1353291,3.65840207 L12.1353291,3.89004487 C12.1910514,3.81384658 12.2582483,3.75118586 12.3369198,3.70202311 C12.415552,3.65289996 12.5146576,3.62831858 12.6341187,3.62831858 C12.7276836,3.62831858 12.8182225,3.64636867 12.9058929,3.68246885 C12.9934454,3.71856903 13.0711344,3.77224429 13.1388422,3.84341548 C13.2064713,3.91462625 13.260779,4.00186834 13.301608,4.10514177 C13.3423584,4.20845478 13.3628319,4.32728453 13.3628319,4.46163103 L13.3628319,4.46764772 C13.3628319,4.6020338 13.3423584,4.72086355 13.301608,4.82413698 C13.260779,4.92744999 13.2070215,5.01469209 13.1403354,5.08586327 C13.0735708,5.15707404 12.9964712,5.21070972 12.9088794,5.2468099 C12.8212484,5.28291008 12.7296877,5.30096016 12.6341187,5.30096016 C12.5126535,5.30096016 12.4126047,5.27689338 12.3339726,5.22875981 C12.2552618,5.18062624 12.1891259,5.12449679 12.1353291,5.06029231 L12.1353291,5.75221239 L11.6814159,5.75221239 L11.6814159,3.65840207 Z" id="Fill-11"></path>
            <polygon id="Fill-13" points="13.6283186 5.22123894 14.0707965 5.22123894 14.0707965 4.77876106 13.6283186 4.77876106"></polygon>
        </g>
    </g>
</svg>