<?xml version="1.0" encoding="UTF-8"?>
<svg width="32px" height="32px" viewBox="0 0 32 32" version="1.1" xmlns="http://www.w3.org/2000/svg" xmlns:xlink="http://www.w3.org/1999/xlink">
    <!-- Generator: Sketch 55.2 (78181) - https://sketchapp.com -->
    <title>@1x/icons/transaction_white_ico</title>
    <desc>Created with Sketch.</desc>
    <g id="icons/transaction_white_ico" stroke="none" stroke-width="1" fill="none" fill-rule="evenodd">
        <rect id="bound" fill-opacity="0" fill="#D8D8D8" x="0" y="0" width="32" height="32"></rect>
        <g id="transfer" transform="translate(7.000000, 7.000000)" fill="#72777E">
            <path d="M14.7084378,0.00762292709 L3.97535648,0.00762292709 C2.90052376,0.00762292709 2.02769861,0.880448079 2.02769861,1.9552808 L2.02769861,10.8398023 L0.796595881,9.60869959 C0.613645631,9.42574934 0.320162938,9.42574934 0.137212688,9.60869959 C-0.0457375625,9.79164984 -0.0457375625,10.0851325 0.137212688,10.2680828 L2.16872276,12.2995929 C2.26019788,12.391068 2.37835325,12.4368055 2.50032008,12.4368055 C2.62228692,12.4368055 2.74044229,12.391068 2.83191741,12.2995929 L4.86342748,10.2680828 C5.04637773,10.0851325 5.04637773,9.79164984 4.86342748,9.60869959 C4.68047723,9.42574934 4.38699454,9.42574934 4.20404429,9.60869959 L2.9691301,10.8436138 L2.9691301,1.9552808 C2.9691301,1.39499566 3.42269426,0.941431495 3.9829794,0.941431495 L14.7122493,0.941431495 C15.2725344,0.941431495 15.7260986,1.39499566 15.7260986,1.9552808 L15.7260986,3.2511784 C15.7260986,3.51035792 15.9357291,3.71998842 16.1949086,3.71998842 C16.4540881,3.71998842 16.6637186,3.51035792 16.6637186,3.2511784 L16.6637186,1.9552808 C16.6522842,0.884259542 15.7794591,0.00762292709 14.7084378,0.00762292709 Z" id="Path"></path>
            <path d="M15.8556883,5.31699164 L13.8241783,7.34850171 C13.641228,7.53145196 13.641228,7.82493466 13.8241783,8.00788491 C13.9156534,8.09936003 14.0338088,8.14509759 14.1557756,8.14509759 C14.2777424,8.14509759 14.3958978,8.09936003 14.4873729,8.00788491 L15.7222871,6.77297072 L15.7222871,15.6574922 C15.7222871,16.2177774 15.268723,16.6713415 14.7084378,16.6713415 L3.97535648,16.6713415 C3.41507134,16.6713415 2.96150717,16.2177774 2.96150717,15.6574922 L2.96150717,14.3615946 C2.96150717,14.1024151 2.75187668,13.8927846 2.49269716,13.8927846 C2.23351764,13.8927846 2.02388714,14.1024151 2.02388714,14.3615946 L2.02388714,15.6574922 C2.02388714,16.732325 2.89671229,17.6051501 3.97154501,17.6051501 L14.7008149,17.6051501 C15.7756476,17.6051501 16.6484728,16.732325 16.6484728,15.6574922 L16.6484728,6.77297072 L17.8833869,8.00788491 C18.0663372,8.19083516 18.3598199,8.19083516 18.5427701,8.00788491 C18.7257204,7.82493466 18.7257204,7.53145196 18.5427701,7.34850171 L16.5112601,5.31699164 C16.3435557,5.14166432 16.0310157,5.14166432 15.8556883,5.31699164 Z" id="Path"></path>
        </g>
        <path d="M15.2799393,15.5262107 C15.3745652,15.549761 15.4579179,15.5910237 15.53,15.65 C15.6033337,15.7100003 15.6749997,15.7933328 15.745,15.9 L16.2,16.595 C16.2400002,16.6550003 16.26,16.713333 16.26,16.77 C16.26,16.8466671 16.229167,16.9099998 16.1675,16.96 C16.105833,17.0100003 16.0333338,17.035 15.95,17.035 C15.8966664,17.035 15.8458336,17.0225001 15.7975,16.9975 C15.7491664,16.9724999 15.7083335,16.9350003 15.675,16.885 L15.01,15.875 C14.943333,15.7683328 14.8725004,15.6933336 14.7975,15.65 C14.7224996,15.6066664 14.6250006,15.585 14.505,15.585 L14.015,15.585 L14.015,16.705 C14.015,16.8050005 13.986667,16.8841664 13.93,16.9425 C13.873333,17.0008336 13.7966671,17.03 13.7,17.03 C13.6033328,17.03 13.5258336,17.0008336 13.4675,16.9425 C13.4091664,16.8841664 13.38,16.8050005 13.38,16.705 L13.38,13.78 C13.38,13.6833328 13.4074997,13.6083336 13.4625,13.555 C13.5175003,13.5016664 13.5933328,13.475 13.69,13.475 L14.94,13.475 C15.340002,13.475 15.6441656,13.5641658 15.8525,13.7425 C16.0608344,13.9208342 16.165,14.1783317 16.165,14.515 C16.165,14.7883347 16.0875008,15.0124991 15.9325,15.1875 C15.7775045,15.3624949 15.5583497,15.475 15.2750291,15.5249949 L15.2799393,15.5262107 Z M14.85,15.09 C15.0933345,15.09 15.2716661,15.0441671 15.385,14.9525 C15.4983339,14.8608329 15.555,14.7200009 15.555,14.53 C15.555,14.3366657 15.4983339,14.1958338 15.385,14.1075 C15.2716661,14.0191662 15.0933345,13.975 14.85,13.975 L14.01,13.975 L14.01,15.09 L14.85,15.09 Z M18.205,14.495 C18.4150011,14.495 18.6024992,14.5483328 18.7675,14.655 C18.9325008,14.7616672 19.0608329,14.912499 19.1525,15.1075 C19.2441671,15.302501 19.29,15.5266654 19.29,15.78 C19.29,16.0333346 19.2441671,16.2549991 19.1525,16.445 C19.0608329,16.6350009 18.9333342,16.7816661 18.77,16.885 C18.6066658,16.9883339 18.4183344,17.04 18.205,17.04 C18.0316658,17.04 17.8766673,17.0033337 17.74,16.93 C17.6033326,16.8566663 17.4983337,16.7550006 17.425,16.625 L17.425,17.645 C17.425,17.7316671 17.396667,17.7999997 17.34,17.85 C17.283333,17.9000002 17.2083338,17.925 17.115,17.925 C17.0216662,17.925 16.9458336,17.8983336 16.8875,17.845 C16.8291664,17.7916664 16.8,17.7216671 16.8,17.635 L16.8,14.8 C16.8,14.7099995 16.8274997,14.6383336 16.8825,14.585 C16.9375003,14.5316664 17.0116662,14.505 17.105,14.505 C17.1983338,14.505 17.2733331,14.5316664 17.33,14.585 C17.3866669,14.6383336 17.415,14.7099995 17.415,14.8 L17.415,14.925 C17.4883337,14.7883326 17.594166,14.6825004 17.7325,14.6075 C17.870834,14.5324996 18.0283325,14.495 18.205,14.495 Z M18.04,16.555 C18.2366677,16.555 18.3899995,16.4875007 18.5,16.3525 C18.6100005,16.2174993 18.665,16.0266679 18.665,15.78 C18.665,15.5266654 18.6100005,15.3300007 18.5,15.19 C18.3899995,15.0499993 18.2366677,14.98 18.04,14.98 C17.839999,14.98 17.6858339,15.0483327 17.5775,15.185 C17.4691661,15.3216674 17.415,15.5166654 17.415,15.77 C17.415,16.0200012 17.4691661,16.2133326 17.5775,16.35 C17.6858339,16.4866674 17.839999,16.555 18.04,16.555 Z M20.035,17.03 C19.9283328,17.03 19.8400004,16.994167 19.77,16.9225 C19.6999996,16.850833 19.665,16.7616672 19.665,16.655 C19.665,16.5483328 19.6999996,16.459167 19.77,16.3875 C19.8400004,16.315833 19.9283328,16.28 20.035,16.28 C20.1416672,16.28 20.2299996,16.315833 20.3,16.3875 C20.3700003,16.459167 20.405,16.5483328 20.405,16.655 C20.405,16.7616672 20.3700003,16.850833 20.3,16.9225 C20.2299996,16.994167 20.1416672,17.03 20.035,17.03 Z" id="Rp." fill="#72777E"></path>
    </g>
</svg>