<?xml version="1.0" encoding="UTF-8"?>
<svg width="36px" height="36px" viewBox="0 0 36 36" version="1.1" xmlns="http://www.w3.org/2000/svg" xmlns:xlink="http://www.w3.org/1999/xlink">
    <!-- Generator: Sketch 55.2 (78181) - https://sketchapp.com -->
    <title>tw_ico</title>
    <desc>Created with Sketch.</desc>
    <g id="Page-1" stroke="none" stroke-width="1" fill="none" fill-rule="evenodd">
        <g id="project-detail" transform="translate(-1136.000000, -478.000000)">
            <g id="Group-23" transform="translate(866.000000, 478.000000)">
                <g id="Group-15-[0h]" transform="translate(234.000000, 0.000000)">
                    <g id="tw_ico" transform="translate(36.000000, 0.000000)">
                        <rect id="Rectangle-2-Copy" fill="#6BABF7" x="0" y="0" width="36" height="36"></rect>
                        <path d="M26,12.6625 C25.5253807,13.3625 24.9321066,13.9859375 24.2525381,14.4890625 C24.2633249,14.6421875 24.2633249,14.7953125 24.2633249,14.9484375 C24.2633249,19.61875 20.7576142,25 14.3502538,25 C12.376269,25 10.5425127,24.4203125 9,23.4140625 C9.28045685,23.446875 9.5501269,23.4578125 9.84137056,23.4578125 C11.4701777,23.4578125 12.9695431,22.9 14.1668782,21.9484375 C12.6351523,21.915625 11.3515228,20.8984375 10.909264,19.4984375 C11.125,19.53125 11.340736,19.553125 11.5672589,19.553125 C11.8800761,19.553125 12.1928934,19.509375 12.4841371,19.4328125 C10.8876904,19.1046875 9.69035533,17.6828125 9.69035533,15.965625 C9.69035533,15.9546875 9.69035533,15.9328125 9.69035533,15.921875 C10.1541878,16.184375 10.6935279,16.3484375 11.2652284,16.3703125 C10.3267766,15.7359375 9.71192893,14.653125 9.71192893,13.428125 C9.71192893,12.771875 9.88451777,12.1703125 10.1865482,11.6453125 C11.9016497,13.7890625 14.4796954,15.1890625 17.3705584,15.3421875 C17.3166244,15.0796875 17.284264,14.80625 17.284264,14.5328125 C17.284264,12.5859375 18.8375635,11 20.768401,11 C21.7715736,11 22.677665,11.4265625 23.3140863,12.115625 C24.1015228,11.9625 24.856599,11.6671875 25.5253807,11.2625 C25.2664975,12.0828125 24.7163706,12.771875 23.9936548,13.209375 C24.694797,13.1328125 25.3743655,12.9359375 26,12.6625 Z" id="twitter---FontAwesome" fill="#FFFFFF"></path>
                    </g>
                </g>
            </g>
        </g>
    </g>
</svg>