<?xml version="1.0" encoding="UTF-8"?>
<svg width="24px" height="24px" viewBox="0 0 24 24" version="1.1" xmlns="http://www.w3.org/2000/svg" xmlns:xlink="http://www.w3.org/1999/xlink">
    <!-- Generator: Sketch 55.2 (78181) - https://sketchapp.com -->
    <title>icons/24/checked_box copy</title>
    <desc>Created with Sketch.</desc>
    <g id="icons/24/checked_box-copy" stroke="none" stroke-width="1" fill="none" fill-rule="evenodd">
        <g id="icon/24/checked">
            <rect id="Rectangle-4" x="0" y="0" width="24" height="24"></rect>
            <path d="M12,2 C17.5228475,2 22,6.4771525 22,12 C22,17.5228475 17.5228475,22 12,22 C6.4771525,22 2,17.5228475 2,12 C2,6.4771525 6.4771525,2 12,2 Z M15.984375,8.34765625 C16.114584,8.21744727 16.2643221,8.15234375 16.4335938,8.15234375 C16.6028654,8.15234375 16.7526035,8.21744727 16.8828125,8.34765625 C17.0000006,8.46484434 17.0585938,8.61132725 17.0585938,8.78710938 C17.0585938,8.9628915 17.0000006,9.10937441 16.8828125,9.2265625 L10.6523438,15.4960938 C10.6393229,15.5091146 10.6263021,15.5221354 10.6132812,15.5351562 C10.6002604,15.5481771 10.5872396,15.5611979 10.5742188,15.5742188 C10.4570307,15.7044277 10.3105478,15.7695312 10.1347656,15.7695312 C9.9589835,15.7695312 9.81250059,15.7044277 9.6953125,15.5742188 L6.58984375,12.4882812 C6.47265566,12.3710932 6.4140625,12.2246103 6.4140625,12.0488281 C6.4140625,11.873046 6.47265566,11.7265631 6.58984375,11.609375 C6.72005273,11.479166 6.86979082,11.4140625 7.0390625,11.4140625 C7.20833418,11.4140625 7.35807227,11.479166 7.48828125,11.609375 L10.125,14.2460938 L15.984375,8.34765625 Z" id="check---simple-line-icons" fill="#45BF7C"></path>
        </g>
    </g>
</svg>