<?xml version="1.0" encoding="UTF-8"?>
<svg width="100px" height="27px" viewBox="0 0 100 27" version="1.1" xmlns="http://www.w3.org/2000/svg" xmlns:xlink="http://www.w3.org/1999/xlink">
    <!-- Generator: Sketch 55.2 (78181) - https://sketchapp.com -->
    <title>@1x/Ziswaf</title>
    <desc>Created with Sketch.</desc>
    <g id="Symbols" stroke="none" stroke-width="1" fill="none" fill-rule="evenodd">
        <g id="comp/general_header" transform="translate(-135.000000, -75.000000)" fill="#00ABC7">
            <g id="header" transform="translate(0.000000, 41.000000)">
                <path d="M150.475787,60.595 L135,60.595 L143.872333,40.1425 L135.812733,40.1425 L135.812733,36.16 L150.40806,36.16 L141.56959,56.6125 L150.475787,56.6125 L150.475787,60.595 Z M158.941754,37.00375 C158.941754,38.3875 157.756519,39.50125 156.300373,39.50125 C154.844226,39.50125 153.658991,38.3875 153.658991,37.00375 C153.658991,35.62 154.844226,34.54 156.300373,34.54 C157.756519,34.54 158.941754,35.62 158.941754,37.00375 Z M158.603115,60.595 L153.99763,60.595 L153.99763,42.40375 L158.603115,42.40375 L158.603115,60.595 Z M175.094819,55.36375 C175.094819,58.7725 172.555029,61 167.678632,61 C165.409753,61 163.140874,60.3925 161.786319,59.68375 L163.276329,56.17375 C164.190654,56.7475 166.222486,57.355 167.543176,57.355 C169.202506,57.355 170.28615,56.57875 170.28615,55.36375 C170.28615,54.01375 169.100914,53.44 167.475449,52.86625 C165.172706,52.0225 162.260413,50.9425 162.260413,47.365 C162.260413,44.15875 164.698612,41.99875 168.965459,41.99875 C171.302066,41.99875 173.198442,42.5725 174.586861,43.315 L173.164578,46.45375 C172.385709,45.98125 170.760244,45.4075 169.541145,45.4075 C167.915679,45.4075 166.967491,46.2175 166.967491,47.2975 C166.967491,48.68125 168.152726,49.22125 169.744328,49.795 C172.148662,50.6725 175.094819,51.685 175.094819,55.36375 Z M204.150017,42.40375 L198.83339,60.595 L194.058584,60.595 L191.247884,50.23375 C190.909245,48.985 190.739925,47.5 190.739925,47.5 L190.672198,47.5 C190.672198,47.5 190.469015,48.985 190.130376,50.23375 L187.319675,60.595 L182.54487,60.595 L177.228242,42.40375 L181.867592,42.40375 L184.47511,53.54125 C184.779885,54.89125 184.949204,56.51125 184.949204,56.51125 L185.016932,56.51125 C185.016932,56.51125 185.287843,54.89125 185.626482,53.54125 L188.572638,42.40375 L192.805621,42.40375 L195.751778,53.54125 C196.090417,54.89125 196.361327,56.51125 196.361327,56.51125 L196.429055,56.51125 C196.429055,56.51125 196.598375,54.89125 196.903149,53.54125 L199.510667,42.40375 L204.150017,42.40375 Z M221.25127,59.68375 C219.896715,60.3925 217.153742,61 214.410769,61 C208.924822,61 206.181849,58.84 206.181849,55.1275 C206.181849,50.16625 211.363021,49.1875 216.882831,48.88375 L216.882831,47.93875 C216.882831,46.04875 215.56214,45.34 213.46258,45.34 C211.735523,45.34 209.635963,45.88 208.349136,46.42 L207.197765,43.315 C208.721639,42.67375 211.329157,41.99875 213.970538,41.99875 C218.643752,41.99875 221.25127,43.82125 221.25127,48.47875 L221.25127,59.68375 Z M216.882831,57.355 L216.882831,51.82 C213.496444,51.98875 210.516424,52.2925 210.516424,55.02625 C210.516424,56.7475 211.870979,57.72625 214.275313,57.72625 C215.257365,57.72625 216.408737,57.5575 216.882831,57.355 Z M235,37.67875 C234.932272,37.67875 234.695225,37.645 234.39045,37.645 C232.561802,37.645 231.139519,38.42125 231.139519,40.37875 L231.139519,42.40375 L234.661361,42.40375 L234.661361,45.84625 L231.139519,45.84625 L231.139519,60.595 L226.601761,60.595 L226.601761,45.84625 L224.332882,45.84625 L224.332882,42.40375 L226.601761,42.40375 L226.601761,40.37875 C226.601761,35.99125 229.514054,34 233.50999,34 C233.984084,34 234.627497,34.03375 235,34.10125 L235,37.67875 Z" id="Ziswaf"></path>
            </g>
        </g>
    </g>
</svg>