<?xml version="1.0" encoding="UTF-8"?>
<svg width="64px" height="64px" viewBox="0 0 64 64" version="1.1" xmlns="http://www.w3.org/2000/svg" xmlns:xlink="http://www.w3.org/1999/xlink">
    <!-- Generator: Sketch 55.2 (78181) - https://sketchapp.com -->
    <title>@1x/illustration/infaq_ilu</title>
    <desc>Created with Sketch.</desc>
    <g id="illustration/infaq_ilu" stroke="none" stroke-width="1" fill="none" fill-rule="evenodd">
        <g>
            <rect id="bound" fill-opacity="0" fill="#CACACA" x="0" y="0" width="64" height="64"></rect>
            <g id="money" transform="translate(10.000000, 10.000000)" fill="#45BF7C" fill-rule="nonzero">
                <path d="M29.3293879,28.2361972 C28.2889123,28.2361972 27.4424483,27.4948797 27.4424483,26.5837239 C27.4424483,25.6724813 28.2889123,24.9311637 29.3293879,24.9311637 C30.3698635,24.9311637 31.2163275,25.6724813 31.2163275,26.5837239 C31.2163275,27.0629507 31.6004055,27.451574 32.0740273,27.451574 C32.5476491,27.451574 32.9317271,27.0629507 32.9317271,26.5837239 C32.9317271,24.9933886 31.7606238,23.6562051 30.1870877,23.2932702 L30.1870877,22.8419014 C30.1870877,22.3626746 29.8030097,21.9740513 29.3293879,21.9740513 C28.8557661,21.9740513 28.4716881,22.3626746 28.4716881,22.8419014 L28.4716881,23.2932702 C26.898152,23.6562051 25.7270487,24.9933886 25.7270487,26.5837239 C25.7270487,28.4519448 27.3430409,29.9718974 29.3293879,29.9718974 C30.3698635,29.9718974 31.2163275,30.713215 31.2163275,31.6244576 C31.2163275,32.5357002 30.3698635,33.2770178 29.3293879,33.2770178 C28.2889123,33.2770178 27.4424483,32.5357002 27.4424483,31.6244576 C27.4424483,31.1452308 27.0583704,30.7566075 26.5847485,30.7566075 C26.1111267,30.7566075 25.7270487,31.1452308 25.7270487,31.6244576 C25.7270487,33.2147929 26.898152,34.5519763 28.4716881,34.9149112 L28.4716881,35.2898225 C28.4716881,35.7690493 28.8557661,36.1576726 29.3293879,36.1576726 C29.8030097,36.1576726 30.1870877,35.7690493 30.1870877,35.2898225 L30.1870877,34.9149112 C31.7606238,34.5519763 32.9317271,33.2147929 32.9317271,31.6244576 C32.9317271,29.7561499 31.3157349,28.2361972 29.3293879,28.2361972 Z" id="Shape"></path>
                <path d="M38.7236023,23.0740513 C37.6031891,21.3075424 36.0246784,19.8939882 34.1587524,18.9863905 C33.7317037,18.7786272 33.2192281,18.9605286 33.0140663,19.3925444 C32.8088187,19.8245602 32.9885068,20.3430138 33.4154698,20.5506903 C36.6670955,22.1322604 38.7680312,25.5115819 38.7680312,29.1598501 C38.7680312,30.7209389 38.3877271,32.2690966 37.6683743,33.6371755 C37.4458869,34.0602525 37.6044756,34.5858225 38.0226901,34.8109428 C38.1510019,34.8800237 38.2889201,34.9128284 38.4247797,34.9128284 C38.7316647,34.9128284 39.0285146,34.7456805 39.182729,34.4524339 C40.033653,32.8344142 40.4834308,31.0042051 40.4834308,29.1598501 C40.4834308,26.9936963 39.8748928,24.8892465 38.7236023,23.0740513 Z" id="Shape"></path>
                <path d="M30.6776062,17.8778856 L30.619883,17.8777988 C30.1462612,17.8777988 29.7621832,18.2663353 29.7621832,18.7456489 C29.7621832,19.2249625 30.1462612,19.613499 30.619883,19.613499 L30.6695439,19.6135858 C30.6709162,19.6135858 30.6722027,19.6135858 30.6736608,19.6135858 C31.1454815,19.6135858 31.5290448,19.2277396 31.5312838,18.7498146 C31.5334191,18.270501 31.1512281,17.880142 30.6776062,17.8778856 Z" id="Shape"></path>
                <path d="M25.2512827,37.7690099 C21.9997427,36.1873531 19.898807,32.8080316 19.898807,29.1598501 C19.898807,27.5987613 20.2791111,26.0506036 20.9984639,24.6825247 C21.2209513,24.2594477 21.0623626,23.7338777 20.6441481,23.5087574 C20.2261053,23.2836371 19.7065107,23.4441026 19.4841092,23.8672663 C18.6331852,25.4853728 18.1834074,27.3154951 18.1834074,29.1598501 C18.1834074,31.3260039 18.7919454,33.4303669 19.9432359,35.2456489 C21.0636491,37.0121578 22.6421598,38.425712 24.5080858,39.3333964 C24.6279064,39.391716 24.7545029,39.4192268 24.8791267,39.4192268 C25.1985341,39.4192268 25.505076,39.2379329 25.6527719,38.9272426 C25.857848,38.4952268 25.6782456,37.9766864 25.2512827,37.7690099 Z" id="Shape"></path>
                <path d="M28.0469552,38.7062012 L27.9972943,38.7060262 C27.5214425,38.7051598 27.1378791,39.0903984 27.1357252,39.5697988 C27.1335049,40.0491124 27.5158674,40.4394714 27.9894893,40.4417278 L28.0469552,40.4419014 C28.520577,40.4419014 28.904655,40.0532781 28.904655,39.5740513 C28.904655,39.0948245 28.520577,38.7062012 28.0469552,38.7062012 Z" id="Shape"></path>
                <path d="M33.2280624,14.9416016 C33.1236803,14.689925 32.9957973,14.4527416 32.8469864,14.2327416 L35.079922,14.2327416 C37.2553918,14.2327416 39.0253411,12.4418462 39.0253411,10.2406312 C39.0253411,8.03941617 37.2553918,6.24852071 35.079922,6.24852071 L28.211462,6.24852071 C28.648117,5.60613807 28.9044834,4.8289783 28.9044834,3.99211045 C28.9044834,1.79089546 27.1345341,0 24.9590643,0 L3.9454191,0 C1.76994932,0 0,1.79089546 0,3.99211045 C0,6.19332544 1.76994932,7.98422091 3.9454191,7.98422091 L10.8138791,7.98422091 C10.3772242,8.62660355 10.1208577,9.40376331 10.1208577,10.2406312 C10.1208577,11.077499 10.3771384,11.8546588 10.8138791,12.4970414 L8.57699805,12.4970414 C6.40152827,12.4970414 4.63157895,14.2879369 4.63157895,16.4891519 C4.63157895,17.7533491 5.21601559,18.8814675 6.12526316,19.6134122 C5.21601559,20.345357 4.63157895,21.4734753 4.63157895,22.7376726 C4.63157895,24.0018698 5.21601559,25.1299882 6.12526316,25.8619329 C5.21601559,26.5938777 4.63157895,27.7219961 4.63157895,28.9861933 C4.63157895,30.2503905 5.21601559,31.3785089 6.12526316,32.1104536 C5.21601559,32.8423984 4.63157895,33.9705168 4.63157895,35.234714 C4.63157895,37.435929 6.40152827,39.2268245 8.57699805,39.2268245 L18.6849903,39.2268245 C21.3478051,42.1086943 25.135922,43.9133018 29.3334191,43.9133018 C37.3733255,43.9133018 43.9143158,37.2949034 43.9143158,29.1598501 C43.9143158,22.389144 39.3830877,16.669925 33.2280624,14.9416016 Z M35.079922,7.98422091 C36.3096062,7.98422091 37.3099415,8.99648126 37.3099415,10.2406312 C37.3099415,11.4847811 36.3096062,12.4970414 35.079922,12.4970414 L29.5906433,12.4970414 L14.0662768,12.4970414 C12.8365926,12.4970414 11.8362573,11.4847811 11.8362573,10.2406312 C11.8362573,8.99648126 12.8365926,7.98422091 14.0662768,7.98422091 L35.079922,7.98422091 Z M3.9454191,6.24852071 C2.71573489,6.24852071 1.71539961,5.23626036 1.71539961,3.99211045 C1.71539961,2.74796055 2.71573489,1.7357002 3.9454191,1.7357002 L24.9590643,1.7357002 C26.1887485,1.7357002 27.1890838,2.74796055 27.1890838,3.99211045 C27.1890838,5.23626036 26.1887485,6.24852071 24.9590643,6.24852071 L3.9454191,6.24852071 Z M8.57699805,14.2327416 L29.5906433,14.2327416 C29.9361248,14.2327416 30.2669396,14.3139724 30.5637037,14.4594241 C30.1580117,14.4249704 29.7478596,14.4063984 29.3334191,14.4063984 C25.3069474,14.4063984 21.656577,16.0665089 19.0153762,18.7455621 L8.57699805,18.7455621 C7.34739961,18.7455621 6.34697856,17.7333018 6.34697856,16.4891519 C6.34697856,15.245002 7.34739961,14.2327416 8.57699805,14.2327416 Z M8.57699805,20.4812623 L17.5498246,20.4812623 C16.5761637,21.8310296 15.8233606,23.3534122 15.3452788,24.9940828 L8.57699805,24.9940828 C7.34731384,24.9940828 6.34697856,23.9819093 6.34697856,22.7376726 C6.34697856,21.4935227 7.34731384,20.4812623 8.57699805,20.4812623 Z M8.57699805,26.729783 L14.951423,26.729783 C14.8213099,27.5206548 14.7525224,28.3321815 14.7525224,29.1598501 C14.7525224,29.8668008 14.8030409,30.5619487 14.8985029,31.2426036 L8.57699805,31.2426036 C7.34731384,31.2426036 6.34697856,30.23043 6.34697856,28.9861933 C6.34697856,27.7419566 7.34731384,26.729783 8.57699805,26.729783 Z M8.57699805,37.4911243 C7.34731384,37.4911243 6.34697856,36.4789507 6.34697856,35.234714 C6.34697856,33.9904773 7.34731384,32.9783037 8.57699805,32.9783037 L15.2487018,32.9783037 C15.6814971,34.6109901 16.3845536,36.1325917 17.3065809,37.4911243 L8.57699805,37.4911243 Z M29.3334191,42.1776016 C22.239384,42.1776016 16.467922,36.3378383 16.467922,29.1598501 C16.467922,21.9818619 22.239384,16.1420986 29.3334191,16.1420986 C36.4274542,16.1420986 42.1989162,21.9818619 42.1989162,29.1598501 C42.1989162,36.3378383 36.4274542,42.1776016 29.3334191,42.1776016 Z" id="Shape"></path>
            </g>
        </g>
    </g>
</svg>