<?xml version="1.0" encoding="UTF-8"?>
<svg width="64px" height="64px" viewBox="0 0 64 64" version="1.1" xmlns="http://www.w3.org/2000/svg" xmlns:xlink="http://www.w3.org/1999/xlink">
    <!-- Generator: Sketch 55.2 (78181) - https://sketchapp.com -->
    <title>@1x/illustration/wakaf_ilu</title>
    <desc>Created with Sketch.</desc>
    <g id="illustration/wakaf_ilu" stroke="none" stroke-width="1" fill="none" fill-rule="evenodd">
        <g>
            <rect id="bound" fill-opacity="0" fill="#CACACA" x="0" y="0" width="64" height="64"></rect>
            <g id="give-love" transform="translate(10.000000, 10.000000)" fill="#45BF7C" fill-rule="nonzero">
                <path d="M36.1792578,37.6396797 L29.2073203,37.6396797 C29.4347969,37.2019141 29.5642187,36.7052812 29.5642187,36.1787422 C29.5642187,34.4255312 28.1378281,32.9991406 26.3846172,32.9991406 L20.5183516,32.9991406 C19.6931797,32.9991406 18.9132969,32.6388047 18.3785078,32.0105156 L15.7197734,28.8871172 C13.5743438,26.3667422 10.4455313,24.9211875 7.13564844,24.9211875 L0.859890625,24.9211875 C0.38534375,24.9211875 0.000515625,25.3059297 0.000515625,25.7805625 L0.000515625,36.9223594 C0.000515625,37.2213359 0.155890625,37.4987422 0.410609375,37.6549766 L7.56825781,42.0438047 C9.65404688,43.3228125 12.0498984,43.9988828 14.496625,43.9988828 L36.1792578,43.9999141 C36.1794297,43.9999141 36.1794297,43.9999141 36.1795156,43.9999141 C37.02875,43.9999141 37.8272812,43.6691406 38.4276406,43.0686953 C39.0282578,42.4681641 39.3590313,41.6696328 39.3590313,40.8192812 C39.3590313,39.0659844 37.9325547,37.6396797 36.1792578,37.6396797 Z M37.2123125,41.8534531 C36.9363672,42.1293984 36.5695859,42.2813359 36.1793438,42.2813359 C36.1792578,42.2813359 36.1792578,42.2813359 36.1792578,42.2813359 L14.4965391,42.2802188 C12.3671797,42.2801328 10.2819922,41.6917188 8.46673438,40.5786563 L1.71917969,36.4412813 L1.71917969,26.6399375 L7.13539063,26.6399375 C9.94073438,26.6399375 12.5925078,27.8650625 14.4109453,30.0012109 L17.0696797,33.1246094 C17.9315469,34.1372109 19.1884688,34.7178047 20.5182656,34.7178047 L26.3845313,34.7178047 C27.1901094,34.7178047 27.8454688,35.3731641 27.8454688,36.1787422 C27.8454688,36.9843203 27.1901094,37.6396797 26.3845313,37.6396797 L17.0997578,37.6396797 C16.49175,37.6396797 15.9009297,37.4644531 15.3911484,37.1329922 L12.1256953,35.0091328 C11.928125,34.7680781 11.606375,34.6433828 11.2802422,34.7131641 C10.8162656,34.8126797 10.5206406,35.2695234 10.6201563,35.7335859 L10.6321875,35.7895313 C10.6797969,36.0116797 10.8133438,36.2058984 11.0038672,36.3298203 L14.454,38.5738203 C15.2433359,39.0872109 16.1580547,39.3585156 17.0995859,39.3585156 L36.1790859,39.3585156 C36.9846641,39.3585156 37.6400236,40.013875 37.6400236,40.8205703 C37.6400236,41.2106406 37.4882578,41.5775078 37.2123125,41.8534531 Z" id="Shape"></path>
                <path d="M33.1344922,7.7831875 C32.9747344,7.62334375 32.753875,7.53139063 32.527,7.53139063 C32.3009844,7.53139063 32.0792656,7.62334375 31.9194219,7.7831875 C31.7595781,7.94303125 31.667625,8.16475 31.667625,8.39076563 C31.667625,8.61678125 31.7594922,8.8385 31.9194219,8.99834375 C32.080125,9.1581875 32.3009844,9.25014063 32.527,9.25014063 C32.753875,9.25014063 32.9747344,9.1581875 33.1344922,8.99834375 C33.2951953,8.8385 33.3871484,8.61678125 33.3871484,8.39076563 C33.3871484,8.16475 33.2951953,7.94303125 33.1344922,7.7831875 Z" id="Shape"></path>
                <path d="M43.5893047,6.34502344 L36.4316563,1.95610938 C34.3459531,0.677101563 31.9501875,0.0011171875 29.503375,0.00103125 L7.82074219,0 C7.82074219,0 7.82074219,0 7.82065625,0 C6.97133594,0 6.17289063,0.330773438 5.57235938,0.93121875 C4.97174219,1.53183594 4.64096875,2.33028125 4.64096875,3.18063281 C4.64096875,4.93384375 6.06744531,6.36023438 7.82057031,6.36023438 L14.7925078,6.36023438 C14.5650313,6.798 14.4356094,7.29463281 14.4356094,7.82117188 C14.4356094,9.57438281 15.862,11.0007734 17.6152109,11.0007734 L23.4814766,11.0007734 C24.3066484,11.0007734 25.0866172,11.3611094 25.6213203,11.9893984 L28.2800547,15.1127969 C30.4254844,17.6331719 33.5542969,19.0787266 36.8642656,19.0787266 L43.1398516,19.0787266 C43.6143984,19.0787266 43.9992267,18.6939844 43.9992267,18.2193516 L43.9992267,7.07764063 C43.9992267,6.77875 43.8441094,6.50125781 43.5893047,6.34502344 Z M42.2807344,17.3600625 L36.8644375,17.3600625 C34.0590938,17.3600625 31.4073203,16.1348516 29.5888828,13.9987891 L26.9301484,10.8753906 C26.0682813,9.86278906 24.8113594,9.28210938 23.4815625,9.28210938 L17.6152969,9.28210938 C16.8097188,9.28210938 16.1543594,8.62675 16.1543594,7.82117188 C16.1543594,7.01559375 16.8097188,6.36023438 17.6152969,6.36023438 L26.9002422,6.36023438 C27.5083359,6.36023438 28.0990703,6.53546094 28.6087656,6.86700781 L29.5458281,7.4765625 C29.9437188,7.73540625 30.4760156,7.62257031 30.7347734,7.22467969 C30.9936172,6.82678906 30.8807813,6.29449219 30.4828906,6.03573437 L29.5458281,5.42626562 C28.7565781,4.912875 27.8418594,4.64157031 26.9002422,4.64157031 L7.82065625,4.64157031 C7.01507813,4.64157031 6.35971875,3.98621094 6.35971875,3.17951562 C6.35971875,2.78927344 6.51174219,2.42240625 6.78760156,2.14646094 C7.06346094,1.87060156 7.4305,1.71875 7.82065625,1.71875 L29.5032891,1.71978125 C31.6327344,1.71986719 33.7179219,2.30836719 35.5331797,3.42142969 L42.2807344,7.55889062 L42.2807344,17.3600625 L42.2807344,17.3600625 Z" id="Shape"></path>
                <path d="M24.8203828,15.4181328 C23.8021094,15.4181328 22.8107344,15.761625 22,16.3796875 C21.1891797,15.7615391 20.1978047,15.4181328 19.1796172,15.4181328 C16.5649687,15.4181328 14.4376719,17.6152109 14.4376719,20.3159687 C14.4376719,22.1434297 15.6701016,24.09 18.1005859,26.1014531 C19.8199375,27.5243203 21.5160859,28.4579453 21.5875,28.4969609 C21.7159766,28.5672578 21.8579453,28.6024922 22,28.6024922 C22.1420547,28.6024922 22.2840234,28.5673437 22.4125,28.4969609 C22.4839141,28.4579453 24.1800625,27.5242344 25.8994141,26.1014531 C28.3298984,24.09 29.5623281,22.1434297 29.5623281,20.3159687 C29.5623281,17.6153828 27.4350313,15.4181328 24.8203828,15.4181328 Z M21.9995703,26.7539766 C20.0499922,25.6026719 16.1564219,22.7918281 16.1564219,20.3160547 C16.1564219,18.5631016 17.5126875,17.1369688 19.1796172,17.1369688 C20.0121797,17.1369688 20.7881953,17.4857891 21.3644063,18.1192344 C21.5272578,18.2982422 21.758,18.4003359 22,18.4003359 C22.242,18.4003359 22.4728281,18.2982422 22.6355937,18.1192344 C23.2118906,17.4857891 23.9878203,17.1369688 24.8203828,17.1369688 C26.4873984,17.1369688 27.8435781,18.5631016 27.8435781,20.3160547 C27.8435781,22.7866719 23.9487187,25.6008672 21.9995703,26.7539766 Z" id="Shape"></path>
                <path d="M25.7807344,18.3553047 C25.7646641,18.3375156 25.7485078,18.3198984 25.7320937,18.3025391 C25.4060469,17.9575859 24.8621484,17.9422891 24.5171953,18.2683359 C24.1722422,18.5943828 24.1569453,19.1382813 24.4829922,19.4832344 L24.5027578,19.5046328 C24.6724844,19.6933516 24.90675,19.7893438 25.1419609,19.7893438 C25.34675,19.7893438 25.5521406,19.7166406 25.7163672,19.569 C26.0692266,19.2515469 26.0981016,18.7081641 25.7807344,18.3553047 Z" id="Shape"></path>
                <path d="M25.8058281,20.8663984 C25.3928125,20.6329922 24.8684219,20.7783984 24.6348437,21.1916719 C23.9824063,22.3457266 22.2133828,23.4916172 21.5868125,23.8357969 C21.170875,24.0637891 21.0183359,24.5856875 21.2459844,25.0018828 C21.4022187,25.2871094 21.6967266,25.4487578 22.0006875,25.4487578 C22.1400781,25.4487578 22.2815312,25.4147266 22.4124141,25.3431406 C22.5217266,25.2833281 25.1026016,23.8566797 26.1310156,22.0373828 C26.3645937,21.6241953 26.2189297,21.0999766 25.8058281,20.8663984 Z" id="Shape"></path>
            </g>
        </g>
    </g>
</svg>