<?xml version="1.0" encoding="UTF-8"?>
<svg width="64px" height="64px" viewBox="0 0 64 64" version="1.1" xmlns="http://www.w3.org/2000/svg" xmlns:xlink="http://www.w3.org/1999/xlink">
    <!-- Generator: Sketch 55.2 (78181) - https://sketchapp.com -->
    <title>@1x/illustration/zakat_ilu</title>
    <desc>Created with Sketch.</desc>
    <g id="illustration/zakat_ilu" stroke="none" stroke-width="1" fill="none" fill-rule="evenodd">
        <g>
            <rect id="bound" fill-opacity="0" fill="#CACACA" x="0" y="0" width="64" height="64"></rect>
            <g id="money-bag" transform="translate(12.000000, 9.000000)" fill="#45BF7C" fill-rule="nonzero">
                <path d="M21.5614458,28.8719335 L18.9108434,28.8719335 C17.946988,28.8719335 17.1662651,28.0972973 17.1662651,27.1409563 C17.1662651,26.1846154 17.946988,25.4099792 18.9108434,25.4099792 L23.5759036,25.4099792 C24.2120482,25.4099792 24.7325301,24.8935551 24.7325301,24.2623701 C24.7325301,23.631185 24.2120482,23.1147609 23.5759036,23.1147609 L21.3879518,23.1147609 L21.3879518,21.5176715 C21.3879518,20.8864865 20.8674699,20.3700624 20.2313253,20.3700624 C19.5951807,20.3700624 19.0746988,20.8864865 19.0746988,21.5176715 L19.0746988,23.1147609 L18.9108434,23.1147609 C16.6746988,23.1147609 14.853012,24.9222453 14.853012,27.1409563 C14.853012,29.3596674 16.6746988,31.1671518 18.9108434,31.1671518 L21.5614458,31.1671518 C22.5253012,31.1671518 23.3060241,31.9417879 23.3060241,32.8981289 C23.3060241,33.8544699 22.5253012,34.629106 21.5614458,34.629106 L16.8096386,34.629106 C16.173494,34.629106 15.653012,35.1455301 15.653012,35.7767152 C15.653012,36.4079002 16.173494,36.9243243 16.8096386,36.9243243 L19.0843373,36.9243243 L19.0843373,38.5596674 C19.0843373,39.1908524 19.6048193,39.7072765 20.2409639,39.7072765 C20.8771084,39.7072765 21.3975904,39.1908524 21.3975904,38.5596674 L21.3975904,36.9243243 L21.5903614,36.9243243 C21.6,36.9243243 21.6096386,36.9243243 21.6192771,36.9243243 C23.8361446,36.8956341 25.6192771,35.0977131 25.6192771,32.8981289 C25.6192771,30.6794179 23.7975904,28.8719335 21.5614458,28.8719335 Z" id="Shape"></path>
                <path d="M37.6192771,26.2706861 C36.4048193,23.4972973 34.7277108,20.8099792 32.6072289,18.2948025 C30.0433735,15.2345114 27.4891566,13.1879418 26.1879518,12.2411642 L31.1036145,3.19417879 C31.3445783,2.74469854 31.2674699,2.19002079 30.8915663,1.83617464 C29.6192771,0.602494802 28.2698795,0 26.7662651,0 C25.3879518,0 24.1253012,0.516424116 23.026506,0.975467775 C22.1590361,1.32931393 21.339759,1.67359667 20.6746988,1.67359667 C20.4722892,1.67359667 20.2987952,1.64490644 20.1253012,1.57796258 C17.8313253,0.745945946 16.0674699,0.22952183 14.3614458,0.22952183 C12.2024096,0.22952183 10.3614458,1.09022869 8.55903614,2.92640333 C8.18313253,3.30893971 8.1253012,3.91143451 8.42409639,4.36091476 L13.7253012,12.3081081 C12.4144578,13.2740125 9.90843373,15.3014553 7.39277108,18.2948025 C5.28192771,20.8099792 3.59518072,23.4972973 2.38072289,26.2706861 C0.857831325,29.7613306 0.086746988,33.4049896 0.086746988,37.0964657 C0.086746988,42.0024948 4.11566265,46 9.06024096,46 L30.939759,46 C35.8843373,46 39.913253,42.0024948 39.913253,37.0964657 C39.913253,33.4049896 39.1421687,29.7613306 37.6192771,26.2706861 Z M10.8915663,3.88274428 C12.0096386,2.92640333 13.0795181,2.50561331 14.3614458,2.50561331 C15.7301205,2.50561331 17.2722892,2.96465696 19.3253012,3.72016632 C19.7493976,3.87318087 20.2024096,3.94968815 20.6650602,3.94968815 C21.7927711,3.94968815 22.8722892,3.50977131 23.9036145,3.07941788 C24.8963855,2.66819127 25.8409639,2.27609148 26.7566265,2.27609148 C27.2,2.27609148 27.826506,2.35259875 28.6168675,2.90727651 L23.9903614,11.4378378 L15.9325301,11.4378378 L10.8915663,3.88274428 Z M30.939759,43.7047817 L9.06024096,43.7047817 C5.38795181,43.7047817 2.4,40.7401247 2.4,37.0964657 C2.4,30.9663202 4.66506024,25.1517672 9.11807229,19.8153846 C11.9325301,16.439501 14.7951807,14.3451143 15.6626506,13.7330561 L24.3180723,13.7330561 C25.1951807,14.3355509 28.0481928,16.439501 30.8626506,19.8153846 C35.3253012,25.1517672 37.5808156,30.9567568 37.5808156,37.0964657 C37.6,40.7401247 34.6120482,43.7047817 30.939759,43.7047817 Z" id="Shape"></path>
            </g>
        </g>
    </g>
</svg>