<?xml version="1.0" encoding="UTF-8"?>
<svg width="18px" height="18px" viewBox="0 0 18 18" version="1.1" xmlns="http://www.w3.org/2000/svg" xmlns:xlink="http://www.w3.org/1999/xlink">
    <!-- Generator: Sketch 55.2 (78181) - https://sketchapp.com -->
    <title>icons/18/transfer_bank</title>
    <desc>Created with Sketch.</desc>
    <g id="icons/18/transfer_bank" stroke="none" stroke-width="1" fill="none" fill-rule="evenodd">
        <rect id="Rectangle-3" fill-opacity="0" fill="#D8D8D8" x="0" y="0" width="18" height="18"></rect>
        <g id="atm-(1)" transform="translate(4.000000, 1.000000)" fill="#8B8B8B" fill-rule="nonzero">
            <path d="M6.30057803,10.8664773 L3.69942197,10.8664773 C3.57971098,10.8664773 3.48265896,10.9678374 3.48265896,11.0928622 C3.48265896,11.2178871 3.57971098,11.3192472 3.69942197,11.3192472 L6.30057803,11.3192472 C6.42028902,11.3192472 6.51734104,11.2178871 6.51734104,11.0928622 C6.51734104,10.9678374 6.42028902,10.8664773 6.30057803,10.8664773 Z" id="Shape"></path>
            <path d="M9.76878613,0 L0.231213873,0 C0.11150289,0 0.0144508671,0.101360085 0.0144508671,0.226384943 L0.0144508671,15.2281605 C0.0144508671,15.3531854 0.11150289,15.4545455 0.231213873,15.4545455 L9.76878613,15.4545455 C9.88849711,15.4545455 9.98554913,15.3531854 9.98554913,15.2281605 L9.98554913,0.226384943 C9.98554913,0.101360085 9.88849711,0 9.76878613,0 Z M9.55202312,15.0017756 L0.447976879,15.0017756 L0.447976879,3.1693892 L0.88150289,3.1693892 L0.88150289,10.1873224 C0.88150289,10.3123473 0.978554913,10.4137074 1.0982659,10.4137074 L2.25433526,10.4137074 C2.37404624,10.4137074 2.47109827,10.3123473 2.47109827,10.1873224 C2.47109827,10.0622976 2.37404624,9.9609375 2.25433526,9.9609375 L1.3150289,9.9609375 L1.3150289,7.69708807 L8.6849711,7.69708807 L8.6849711,9.9609375 L3.12138728,9.9609375 C3.0016763,9.9609375 2.90462428,10.0622976 2.90462428,10.1873224 C2.90462428,10.3123473 3.0016763,10.4137074 3.12138728,10.4137074 L8.9017341,10.4137074 C9.02144509,10.4137074 9.11849711,10.3123473 9.11849711,10.1873224 L9.11849711,3.1693892 L9.55202312,3.1693892 L9.55202312,15.0017756 Z M1.3150289,7.24431818 L1.3150289,3.1693892 L8.6849711,3.1693892 L8.6849711,7.24431818 L1.3150289,7.24431818 Z M9.55202312,2.71661932 L0.447976879,2.71661932 L0.447976879,0.452769886 L9.55202312,0.452769886 L9.55202312,2.71661932 Z" id="Shape"></path>
            <path d="M6.87861272,3.62215909 L3.12138728,3.62215909 C3.0016763,3.62215909 2.90462428,3.72351918 2.90462428,3.84854403 L2.90462428,6.56516335 C2.90462428,6.69018821 3.0016763,6.7915483 3.12138728,6.7915483 L6.87861272,6.7915483 C6.9983237,6.7915483 7.09537572,6.69018821 7.09537572,6.56516335 L7.09537572,3.84854403 C7.09537572,3.72351918 6.9983237,3.62215909 6.87861272,3.62215909 Z M6.66184971,6.33877841 L3.33815029,6.33877841 L3.33815029,4.07492898 L6.66184971,4.07492898 L6.66184971,6.33877841 Z" id="Shape"></path>
            <path d="M8.03468208,3.62215909 L7.74566474,3.62215909 C7.62595376,3.62215909 7.52890173,3.72351918 7.52890173,3.84854403 C7.52890173,3.97356889 7.62595376,4.07492898 7.74566474,4.07492898 L8.03468208,4.07492898 C8.15439306,4.07492898 8.25144509,3.97356889 8.25144509,3.84854403 C8.25144509,3.72351918 8.15439306,3.62215909 8.03468208,3.62215909 Z" id="Shape"></path>
            <path d="M8.03468208,4.52769886 L7.74566474,4.52769886 C7.62595376,4.52769886 7.52890173,4.62905895 7.52890173,4.75408381 C7.52890173,4.87910866 7.62595376,4.98046875 7.74566474,4.98046875 L8.03468208,4.98046875 C8.15439306,4.98046875 8.25144509,4.87910866 8.25144509,4.75408381 C8.25144509,4.62905895 8.15439306,4.52769886 8.03468208,4.52769886 Z" id="Shape"></path>
            <path d="M8.03468208,5.43323864 L7.74566474,5.43323864 C7.62595376,5.43323864 7.52890173,5.53459872 7.52890173,5.65962358 C7.52890173,5.78464844 7.62595376,5.88600852 7.74566474,5.88600852 L8.03468208,5.88600852 C8.15439306,5.88600852 8.25144509,5.78464844 8.25144509,5.65962358 C8.25144509,5.53459872 8.15439306,5.43323864 8.03468208,5.43323864 Z" id="Shape"></path>
            <path d="M8.03468208,6.33877841 L7.74566474,6.33877841 C7.62595376,6.33877841 7.52890173,6.44013849 7.52890173,6.56516335 C7.52890173,6.69018821 7.62595376,6.7915483 7.74566474,6.7915483 L8.03468208,6.7915483 C8.15439306,6.7915483 8.25144509,6.69018821 8.25144509,6.56516335 C8.25144509,6.44013849 8.15439306,6.33877841 8.03468208,6.33877841 Z" id="Shape"></path>
            <path d="M2.25433526,3.62215909 L1.96531792,3.62215909 C1.84560694,3.62215909 1.74855491,3.72351918 1.74855491,3.84854403 C1.74855491,3.97356889 1.84560694,4.07492898 1.96531792,4.07492898 L2.25433526,4.07492898 C2.37404624,4.07492898 2.47109827,3.97356889 2.47109827,3.84854403 C2.47109827,3.72351918 2.37404624,3.62215909 2.25433526,3.62215909 Z" id="Shape"></path>
            <path d="M2.25433526,4.52769886 L1.96531792,4.52769886 C1.84560694,4.52769886 1.74855491,4.62905895 1.74855491,4.75408381 C1.74855491,4.87910866 1.84560694,4.98046875 1.96531792,4.98046875 L2.25433526,4.98046875 C2.37404624,4.98046875 2.47109827,4.87910866 2.47109827,4.75408381 C2.47109827,4.62905895 2.37404624,4.52769886 2.25433526,4.52769886 Z" id="Shape"></path>
            <path d="M2.25433526,5.43323864 L1.96531792,5.43323864 C1.84560694,5.43323864 1.74855491,5.53459872 1.74855491,5.65962358 C1.74855491,5.78464844 1.84560694,5.88600852 1.96531792,5.88600852 L2.25433526,5.88600852 C2.37404624,5.88600852 2.47109827,5.78464844 2.47109827,5.65962358 C2.47109827,5.53459872 2.37404624,5.43323864 2.25433526,5.43323864 Z" id="Shape"></path>
            <path d="M2.25433526,6.33877841 L1.96531792,6.33877841 C1.84560694,6.33877841 1.74855491,6.44013849 1.74855491,6.56516335 C1.74855491,6.69018821 1.84560694,6.7915483 1.96531792,6.7915483 L2.25433526,6.7915483 C2.37404624,6.7915483 2.47109827,6.69018821 2.47109827,6.56516335 C2.47109827,6.44013849 2.37404624,6.33877841 2.25433526,6.33877841 Z" id="Shape"></path>
        </g>
    </g>
</svg>