<?xml version="1.0" encoding="UTF-8"?>
<svg width="36px" height="36px" viewBox="0 0 36 36" version="1.1" xmlns="http://www.w3.org/2000/svg" xmlns:xlink="http://www.w3.org/1999/xlink">
    <!-- Generator: Sketch 55.2 (78181) - https://sketchapp.com -->
    <title>email_ico</title>
    <desc>Created with Sketch.</desc>
    <g id="Page-1" stroke="none" stroke-width="1" fill="none" fill-rule="evenodd">
        <g id="project-detail" transform="translate(-1260.000000, -885.000000)">
            <g id="Group-16" transform="translate(1060.000000, 885.000000)">
                <g id="Group-15-[0h]" transform="translate(128.000000, 0.000000)">
                    <g id="email_ico" transform="translate(72.000000, 0.000000)">
                        <rect id="Rectangle-2-Copy-5" fill="#9B9B9B" x="0" y="0" width="36" height="36"></rect>
                        <path d="M25.5551839,11 C25.9565237,11 26.2976575,11.136337 26.5785953,11.409015 C26.8595332,11.6816931 27,12.0127972 27,12.4023372 L27,23.5976628 C27,23.9872028 26.8595332,24.3183069 26.5785953,24.590985 C26.2976575,24.863663 25.9565237,25 25.5551839,25 L10.4448161,25 C10.0434763,25 9.70234254,24.863663 9.42140468,24.590985 C9.14046682,24.3183069 9,23.9872028 9,23.5976628 L9,12.4023372 C9,12.0127972 9.14046682,11.6816931 9.42140468,11.409015 C9.70234254,11.136337 10.0434763,11 10.4448161,11 L25.5551839,11 Z M24.0100334,12.4023372 L11.9899666,12.4023372 L17.4882943,16.804118 L17.5284281,16.8235949 C17.662208,16.9664262 17.8294304,17.0378408 18.0301003,17.0378408 L18.0501672,17.0378408 C18.2508371,17.0378408 18.4247484,16.9664262 18.5719064,16.8235949 L18.5919732,16.7846411 L18.632107,16.7651642 L24.0100334,12.4023372 Z M25.5551839,23.5976628 L25.5551839,12.9671675 L19.5752508,17.8169171 C19.160533,18.2324265 18.6521769,18.4401781 18.0501672,18.4401781 C17.4481575,18.4401781 16.9398014,18.2389187 16.5250836,17.836394 L10.4448161,12.9671675 L10.4448161,23.5976628 L25.5551839,23.5976628 Z" id="mail---anticon-copy" fill="#FFFFFF"></path>
                    </g>
                </g>
            </g>
        </g>
    </g>
</svg>