<?xml version="1.0" encoding="UTF-8"?>
<svg width="16px" height="16px" viewBox="0 0 16 16" version="1.1" xmlns="http://www.w3.org/2000/svg" xmlns:xlink="http://www.w3.org/1999/xlink">
    <!-- Generator: Sketch 55.2 (78181) - https://sketchapp.com -->
    <title>Group 7</title>
    <desc>Created with Sketch.</desc>
    <g id="Symbols" stroke="none" stroke-width="1" fill="none" fill-rule="evenodd">
        <g id="icons/18/tanda_tanya_ico" transform="translate(-1.000000, -1.000000)">
            <g id="Group-7">
                <rect id="Rectangle" x="0" y="0" width="18" height="18"></rect>
                <circle id="Oval-2" fill="#ABC7AB" opacity="0.300000012" cx="9" cy="9" r="8"></circle>
                <path d="M8.24041812,10.4973545 L8.24041812,10.1587302 C8.24041812,9.77072116 8.30236098,9.44797307 8.42624855,9.19047619 C8.55013612,8.93297931 8.76693612,8.66666804 9.07665505,8.39153439 C9.44522058,8.05996307 9.6829263,7.80247005 9.78977933,7.61904762 C9.89663236,7.43562519 9.95005807,7.21693249 9.95005807,6.96296296 C9.95005807,6.66666519 9.86333807,6.43915423 9.68989547,6.28042328 C9.51645287,6.12169233 9.26713287,6.04232804 8.94192799,6.04232804 C8.64769501,6.04232804 8.37514643,6.08994661 8.1242741,6.18518519 C7.87340177,6.28042376 7.62872748,6.39506106 7.3902439,6.52910053 L7,5.5978836 C7.62872943,5.19929254 8.302358,5 9.02090592,5 C9.62795503,5 10.1095607,5.16931048 10.4657375,5.50793651 C10.8219143,5.84656254 11,6.31393 11,6.91005291 C11,7.1746045 10.9659314,7.41005188 10.8977933,7.61640212 C10.8296551,7.82275235 10.7266751,8.01939942 10.5888502,8.20634921 C10.4510252,8.39329899 10.2133195,8.6366828 9.8757259,8.93650794 C9.58768729,9.19400481 9.39489015,9.40740656 9.29732869,9.57671958 C9.19976722,9.74603259 9.15098722,9.97354354 9.15098722,10.2592593 L9.15098722,10.4973545 L8.24041812,10.4973545 Z M8.04994193,12.1851852 C8.04994193,11.6525547 8.27758193,11.3862434 8.73286876,11.3862434 C8.95586639,11.3862434 9.12620925,11.4559076 9.24390244,11.5952381 C9.36159563,11.7345686 9.42044135,11.9312157 9.42044135,12.1851852 C9.42044135,12.4356274 9.36082135,12.6340381 9.24157956,12.7804233 C9.12233777,12.9268085 8.9527692,13 8.73286876,13 C8.51296832,13 8.34417403,12.9285721 8.22648084,12.7857143 C8.10878764,12.6428564 8.04994193,12.4426821 8.04994193,12.1851852 Z" id="?" fill="#3C3C3C" opacity="0.699999988"></path>
            </g>
        </g>
    </g>
</svg>