<?xml version="1.0" encoding="UTF-8"?>
<svg width="36px" height="36px" viewBox="0 0 36 36" version="1.1" xmlns="http://www.w3.org/2000/svg" xmlns:xlink="http://www.w3.org/1999/xlink">
    <!-- Generator: Sketch 55.2 (78181) - https://sketchapp.com -->
    <title>link_ico</title>
    <desc>Created with Sketch.</desc>
    <g id="Page-1" stroke="none" stroke-width="1" fill="none" fill-rule="evenodd">
        <g id="project-detail" transform="translate(-1280.000000, -478.000000)">
            <g id="Group-23" transform="translate(866.000000, 478.000000)">
                <g id="Group-15-[0h]" transform="translate(234.000000, 0.000000)">
                    <g id="link_ico" transform="translate(180.000000, 0.000000)">
                        <rect id="Rectangle-2-Copy-5" fill="#F68B03" x="0" y="0" width="36" height="36"></rect>
                        <path d="M24.8823529,22.2352941 C24.8823529,21.9485294 24.7720588,21.6838235 24.5735294,21.4852941 L22.2794118,19.1911765 C22.0808824,18.9926471 21.8051471,18.8823529 21.5294118,18.8823529 C21.2095588,18.8823529 20.9558824,19.0036765 20.7352941,19.2352941 C21.0992647,19.5992647 21.5294118,19.9080882 21.5294118,20.4705882 C21.5294118,21.0551471 21.0551471,21.5294118 20.4705882,21.5294118 C19.9080882,21.5294118 19.5992647,21.0992647 19.2352941,20.7352941 C19.0036765,20.9558824 18.8713235,21.2095588 18.8713235,21.5404412 C18.8713235,21.8161765 18.9816176,22.0919118 19.1801471,22.2904412 L21.4522059,24.5735294 C21.6507353,24.7720588 21.9264706,24.8713235 22.2022059,24.8713235 C22.4779412,24.8713235 22.7536765,24.7720588 22.9522059,24.5845588 L24.5735294,22.9742647 C24.7720588,22.7757353 24.8823529,22.5110294 24.8823529,22.2352941 Z M17.1286765,14.4595588 C17.1286765,14.1838235 17.0183824,13.9080882 16.8198529,13.7095588 L14.5477941,11.4264706 C14.3492647,11.2279412 14.0735294,11.1176471 13.7977941,11.1176471 C13.5220588,11.1176471 13.2463235,11.2279412 13.0477941,11.4154412 L11.4264706,13.0257353 C11.2279412,13.2242647 11.1176471,13.4889706 11.1176471,13.7647059 C11.1176471,14.0514706 11.2279412,14.3161765 11.4264706,14.5147059 L13.7205882,16.8088235 C13.9191176,17.0073529 14.1948529,17.1066176 14.4705882,17.1066176 C14.7904412,17.1066176 15.0441176,16.9963235 15.2647059,16.7647059 C14.9007353,16.4007353 14.4705882,16.0919118 14.4705882,15.5294118 C14.4705882,14.9448529 14.9448529,14.4705882 15.5294118,14.4705882 C16.0919118,14.4705882 16.4007353,14.9007353 16.7647059,15.2647059 C16.9963235,15.0441176 17.1286765,14.7904412 17.1286765,14.4595588 Z M27,22.2352941 C27,23.0735294 26.6580882,23.8897059 26.0625,24.4742647 L24.4411765,26.0845588 C23.8455882,26.6801471 23.0404412,27 22.2022059,27 C21.3529412,27 20.5477941,26.6691176 19.9522059,26.0625 L17.6801471,23.7794118 C17.0845588,23.1838235 16.7647059,22.3786765 16.7647059,21.5404412 C16.7647059,20.6691176 17.1176471,19.8419118 17.7352941,19.2352941 L16.7647059,18.2647059 C16.1580882,18.8823529 15.3419118,19.2352941 14.4705882,19.2352941 C13.6323529,19.2352941 12.8161765,18.9044118 12.2205882,18.3088235 L9.92647059,16.0147059 C9.31985294,15.4080882 9,14.6139706 9,13.7647059 C9,12.9264706 9.34191176,12.1102941 9.9375,11.5257353 L11.5588235,9.91544118 C12.1544118,9.31985294 12.9595588,9 13.7977941,9 C14.6470588,9 15.4522059,9.33088235 16.0477941,9.9375 L18.3198529,12.2205882 C18.9154412,12.8161765 19.2352941,13.6213235 19.2352941,14.4595588 C19.2352941,15.3308824 18.8823529,16.1580882 18.2647059,16.7647059 L19.2352941,17.7352941 C19.8419118,17.1176471 20.6580882,16.7647059 21.5294118,16.7647059 C22.3676471,16.7647059 23.1838235,17.0955882 23.7794118,17.6911765 L26.0735294,19.9852941 C26.6801471,20.5919118 27,21.3860294 27,22.2352941 Z" id="link---FontAwesome-Copy" fill="#FFFFFF"></path>
                    </g>
                </g>
            </g>
        </g>
    </g>
</svg>