<?xml version="1.0" encoding="UTF-8"?>
<svg width="36px" height="36px" viewBox="0 0 36 36" version="1.1" xmlns="http://www.w3.org/2000/svg" xmlns:xlink="http://www.w3.org/1999/xlink">
    <!-- Generator: Sketch 55.2 (78181) - https://sketchapp.com -->
    <title>wa_ico</title>
    <desc>Created with Sketch.</desc>
    <g id="Page-1" stroke="none" stroke-width="1" fill="none" fill-rule="evenodd">
        <g id="project-detail" transform="translate(-1224.000000, -885.000000)">
            <g id="Group-16" transform="translate(1060.000000, 885.000000)">
                <g id="Group-15-[0h]" transform="translate(128.000000, 0.000000)">
                    <g id="wa_ico" transform="translate(36.000000, 0.000000)">
                        <rect id="Rectangle-2-Copy-2" fill="#00C300" x="0" y="0" width="36" height="36"></rect>
                        <path d="M16.1517857,13.9017857 C16.2053574,14.035715 16.2790174,14.2366058 16.3727679,14.5044643 C16.4665183,14.7723228 16.5602674,15.0133918 16.6540179,15.2276786 C16.7477683,15.4419654 16.7946429,15.5624999 16.7946429,15.5892857 C16.8482146,15.7500008 16.8482146,15.883928 16.7946429,15.9910714 C16.7142853,16.1517865 16.633929,16.272321 16.5535714,16.3526786 L16.1919643,16.7142857 C16.0312492,16.8750008 15.991071,17.0357135 16.0714286,17.1964286 C16.3392871,17.7321455 16.7410688,18.2544617 17.2767857,18.7633929 C17.758931,19.2187523 18.3482108,19.620534 19.0446429,19.96875 C19.2589296,20.0758934 19.4196423,20.0625007 19.5267857,19.9285714 C19.5803574,19.8749997 19.7075883,19.7343761 19.9084821,19.5066964 C20.109376,19.2790167 20.2366069,19.1383931 20.2901786,19.0848214 C20.4241078,18.9241063 20.5982132,18.8839282 20.8125,18.9642857 C20.8928575,18.9910716 21.1473193,19.1249988 21.5758929,19.3660714 C22.0044664,19.6071441 22.2455354,19.7410713 22.2991071,19.7678571 C22.5669656,19.9017864 22.7142856,19.9955354 22.7410714,20.0491071 C22.821429,20.2098222 22.7544654,20.558033 22.5401786,21.09375 C22.459821,21.3348226 22.2455375,21.5558026 21.8973214,21.7566964 C21.5491054,21.9575903 21.2544655,22.0714284 21.0133929,22.0982143 C20.986607,22.1785718 20.7723234,22.1919646 20.3705357,22.1383929 C19.968748,22.0848212 19.2857191,21.8571449 18.3214286,21.4553571 C18.0267842,21.3214279 17.725448,21.1607152 17.4174107,20.9732143 C17.1093735,20.7857133 16.841519,20.5848225 16.6138393,20.3705357 C16.3861596,20.1562489 16.1651796,19.9419654 15.9508929,19.7276786 C15.7366061,19.5133918 15.5491079,19.2991082 15.3883929,19.0848214 C15.2276778,18.8705346 15.0937505,18.6830365 14.9866071,18.5223214 C14.8794637,18.3616063 14.7857147,18.2142864 14.7053571,18.0803571 L14.5848214,17.9196429 C13.9955328,17.1428533 13.7142856,16.3660753 13.7410714,15.5892857 C13.7678573,14.9196395 14.0624972,14.3035742 14.625,13.7410714 C14.8125009,13.5535705 15.0133918,13.4598214 15.2276786,13.4598214 L15.6294643,13.4598214 C15.8705369,13.4598214 16.0446423,13.6071414 16.1517857,13.9017857 Z M23.5044643,12.4955357 C21.9776709,11.0223141 20.1964388,10.2857143 18.1607143,10.2857143 C16.1249898,10.2857143 14.3437576,11.0223141 12.8169643,12.4955357 C11.3437426,13.9687574 10.6071429,15.7232041 10.6071429,17.7589286 C10.6071429,19.1517927 10.9687464,20.4374941 11.6919643,21.6160714 L12.0133929,22.1383929 L11.8125,22.7008929 L11.0491071,24.9910714 L13.5,24.2276786 L14.0223214,24.0669643 L14.5044643,24.3080357 C15.6562558,24.9241102 16.8749936,25.2321429 18.1607143,25.2321429 C20.2232246,25.2321429 22.0044568,24.5089358 23.5044643,23.0625 C24.9776859,21.5892783 25.7142857,19.8214389 25.7142857,17.7589286 C25.7142857,15.7232041 24.9776859,13.9687574 23.5044643,12.4955357 Z M11.8928571,11.5714286 C13.6339373,9.85713429 15.7232021,9 18.1607143,9 C20.5982265,9 22.6807949,9.85043792 24.4084821,11.5513393 C26.1361694,13.2522406 27,15.3214164 27,17.7589286 C27,20.1964408 26.1361694,22.2656165 24.4084821,23.9665179 C22.6807949,25.6674192 20.5982265,26.5178571 18.1607143,26.5178571 C16.6874926,26.5178571 15.267864,26.1562536 13.9017857,25.4330357 L9,27 L10.6071429,22.2991071 C9.74999571,20.8794572 9.32142857,19.3660795 9.32142857,17.7589286 C9.32142857,15.3214164 10.1785629,13.258937 11.8928571,11.5714286 Z" id="ion-social-whatsapp-outline---Ionicons" fill="#FFFFFF"></path>
                    </g>
                </g>
            </g>
        </g>
    </g>
</svg>