<?xml version="1.0" encoding="UTF-8"?>
<svg width="24px" height="24px" viewBox="0 0 24 24" version="1.1" xmlns="http://www.w3.org/2000/svg" xmlns:xlink="http://www.w3.org/1999/xlink">
    <!-- Generator: Sketch 55.2 (78181) - https://sketchapp.com -->
    <title>@1x/icons/small/fb_ico</title>
    <desc>Created with Sketch.</desc>
    <g id="icons/small/fb_ico" stroke="none" stroke-width="1" fill="none" fill-rule="evenodd">
        <g>
            <rect id="bound" fill-opacity="0" fill="#939393" x="0" y="0" width="24" height="24"></rect>
            <path d="M17.2321586,4 C18.9179865,4 20.2857337,5.36774717 20.2857337,7.05357507 L20.2857337,17.2321586 C20.2857337,18.9179865 18.9179865,20.2857337 17.2321586,20.2857337 L15.2388527,20.2857337 L15.2388527,13.9771324 L17.3487882,13.9771324 L17.666869,11.5173081 L15.2388527,11.5173081 L15.2388527,9.94810977 C15.2388527,9.23772946 15.4297011,8.76060835 16.4581622,8.76060835 L17.7516905,8.75000566 L17.7516905,6.55524858 C17.529034,6.52344051 16.7550375,6.45982436 15.8644115,6.45982436 C13.9877351,6.45982436 12.6942068,7.60491501 12.6942068,9.70424787 L12.6942068,11.5173081 L10.5736686,11.5173081 L10.5736686,13.9771324 L12.6942068,13.9771324 L12.6942068,20.2857337 L7.05357507,20.2857337 C5.36774717,20.2857337 4,18.9179865 4,17.2321586 L4,7.05357507 C4,5.36774717 5.36774717,4 7.05357507,4 L17.2321586,4 Z" id="facebook-square---FontAwesome" fill="#D4D4D4"></path>
        </g>
    </g>
</svg>