<?xml version="1.0" encoding="UTF-8"?>
<svg width="24px" height="24px" viewBox="0 0 24 24" version="1.1" xmlns="http://www.w3.org/2000/svg" xmlns:xlink="http://www.w3.org/1999/xlink">
    <!-- Generator: Sketch 55.2 (78181) - https://sketchapp.com -->
    <title>@1x/icons/small/mail_ico</title>
    <desc>Created with Sketch.</desc>
    <g id="icons/small/mail_ico" stroke="none" stroke-width="1" fill="none" fill-rule="evenodd">
        <g>
            <rect id="bound" fill-opacity="0" fill="#939393" x="0" y="0" width="24" height="24"></rect>
            <path d="M18.5216346,9.01796407 L18.5216346,7.50898204 L12.5,11.2634731 L6.47836538,7.50898204 L6.47836538,9.01796407 L12.5,12.7365269 L18.5216346,9.01796407 Z M18.5216346,6 C18.9302905,6 19.2788447,6.1496991 19.5673077,6.4491018 C19.8557707,6.74850449 20,7.10179437 20,7.50898204 L20,16.491018 C20,16.8982056 19.8557707,17.2514955 19.5673077,17.5508982 C19.2788447,17.8503009 18.9302905,18 18.5216346,18 L6.47836538,18 C6.0697095,18 5.72115529,17.8503009 5.43269231,17.5508982 C5.14422933,17.2514955 5,16.8982056 5,16.491018 L5,7.50898204 C5,7.10179437 5.14422933,6.74850449 5.43269231,6.4491018 C5.72115529,6.1496991 6.0697095,6 6.47836538,6 L18.5216346,6 Z" id="email---material" fill="#00ABC7"></path>
        </g>
    </g>
</svg>