<?xml version="1.0" encoding="UTF-8"?>
<svg width="24px" height="24px" viewBox="0 0 24 24" version="1.1" xmlns="http://www.w3.org/2000/svg" xmlns:xlink="http://www.w3.org/1999/xlink">
    <!-- Generator: Sketch 55.2 (78181) - https://sketchapp.com -->
    <title>@1x/icons/small/money_ico</title>
    <desc>Created with Sketch.</desc>
    <g id="icons/small/money_ico" stroke="none" stroke-width="1" fill="none" fill-rule="evenodd">
        <g>
            <rect id="bound" fill-opacity="0" fill="#FFFFFF" x="0" y="0" width="24" height="24"></rect>
            <path d="M12.3018868,11.6 C13.0314502,11.800001 13.61635,12.0133322 14.0566038,12.24 C14.6603804,12.5466682 15.1194953,12.9133312 15.4339623,13.34 C15.8113226,13.8600026 16,14.4933296 16,15.24 C16,16.0533374 15.7295625,16.7199974 15.1886792,17.24 C14.7106894,17.706669 14.0566079,18.0266658 13.2264151,18.2 L13.2264151,20 L10.8679245,20 L10.8679245,18.2 C10.0628891,18.0133324 9.40880755,17.6666692 8.90566038,17.16 C8.35219849,16.5999972 8.05031472,15.8800044 8,15 L9.73584906,15 C9.76100642,15.533336 9.94968377,15.9466652 10.3018868,16.24 C10.7044045,16.5866684 11.2893043,16.76 12.0566038,16.76 C12.8239032,16.76 13.3962245,16.5866684 13.7735849,16.24 C14.0503158,15.973332 14.1886792,15.6533352 14.1886792,15.28 C14.1886792,14.8266644 14.0377374,14.4533348 13.7358491,14.16 C13.3584887,13.7733314 12.7232749,13.4666678 11.8301887,13.24 C10.6477928,12.9466652 9.76100925,12.5466692 9.16981132,12.04 C8.49056264,11.4533304 8.1509434,10.7066712 8.1509434,9.8 C8.1509434,9.0266628 8.4150917,8.3666694 8.94339623,7.82 C9.43396472,7.3133308 10.0754677,6.9733342 10.8679245,6.8 L10.8679245,5 L13.2264151,5 L13.2264151,6.84 C14.0314506,7.040001 14.6603751,7.439997 15.1132075,8.04 C15.528304,8.6000028 15.7484275,9.2533296 15.7735849,10 L14.0377358,10 C14,8.8266608 13.3396291,8.24 12.0566038,8.24 C11.4025125,8.24 10.8867943,8.3833319 10.509434,8.67 C10.1320736,8.9566681 9.94339623,9.333331 9.94339623,9.8 C9.94339623,10.200002 10.1194951,10.5399986 10.4716981,10.82 C10.8239011,11.1000014 11.4339579,11.3599988 12.3018868,11.6 Z" id="attach_money---material" fill="#5E6369"></path>
        </g>
    </g>
</svg>