<?xml version="1.0" encoding="UTF-8"?>
<svg width="24px" height="24px" viewBox="0 0 24 24" version="1.1" xmlns="http://www.w3.org/2000/svg" xmlns:xlink="http://www.w3.org/1999/xlink">
    <!-- Generator: Sketch 55.2 (78181) - https://sketchapp.com -->
    <title>@1x/icons/small/phone_ico</title>
    <desc>Created with Sketch.</desc>
    <g id="icons/small/phone_ico" stroke="none" stroke-width="1" fill="none" fill-rule="evenodd">
        <g>
            <rect id="bound" fill-opacity="0" fill="#939393" x="0" y="0" width="24" height="24"></rect>
            <path d="M7.8,11.048 C8.37244731,12.1431166 9.10044003,13.13244 9.984,14.016 C10.86756,14.89956 11.8568834,15.6275527 12.952,16.2 L14.6693333,14.4826667 C14.7688894,14.3706661 14.8933326,14.2960002 15.0426667,14.2586667 C15.1920007,14.2213331 15.3351104,14.2337775 15.472,14.296 C16.2933374,14.5822237 17.2142171,14.7253333 18.2346667,14.7253333 C18.4462233,14.7253333 18.6266659,14.7999993 18.776,14.9493333 C18.9253341,15.0986674 19,15.2791101 19,15.4906667 L19,18.2346667 C19,18.4462233 18.9253341,18.6266659 18.776,18.776 C18.6266659,18.9253341 18.4462233,19 18.2346667,19 C16.4426577,19 14.7253415,18.651559 13.0826667,17.9546667 C11.5022143,17.2826633 10.1022283,16.336895 8.88266667,15.1173333 C7.66310501,13.8977717 6.71733669,12.4977857 6.04533333,10.9173333 C5.34844096,9.27465845 5,7.55734229 5,5.76533333 C5,5.55377672 5.07466592,5.37333408 5.224,5.224 C5.37333408,5.07466592 5.55377672,5 5.76533333,5 L8.50933333,5 C8.72088995,5 8.90133259,5.07466592 9.05066667,5.224 C9.20000075,5.37333408 9.27466667,5.55377672 9.27466667,5.76533333 C9.27466667,6.78578288 9.41777635,7.70666256 9.704,8.528 C9.74133352,8.66488957 9.74755568,8.80799925 9.72266667,8.95733333 C9.69777765,9.10666741 9.62933389,9.23111061 9.51733333,9.33066667 L7.8,11.048 Z" id="phone---material" fill="#00ABC7"></path>
        </g>
    </g>
</svg>