<?xml version="1.0" encoding="UTF-8"?>
<svg width="24px" height="24px" viewBox="0 0 24 24" version="1.1" xmlns="http://www.w3.org/2000/svg" xmlns:xlink="http://www.w3.org/1999/xlink">
    <!-- Generator: Sketch 55.2 (78181) - https://sketchapp.com -->
    <title>@1x/icons/small/time_ico</title>
    <desc>Created with Sketch.</desc>
    <g id="icons/small/time_ico" stroke="none" stroke-width="1" fill="none" fill-rule="evenodd">
        <g>
            <rect id="Rectangle" fill-opacity="0" fill="#FFFFFF" x="0" y="0" width="24" height="24"></rect>
            <path d="M6.3286385,6.36619718 C7.90611117,4.78872451 9.7965461,4 12,4 C14.2034539,4 16.0876291,4.78246479 17.6525822,6.34741784 C19.2175352,7.91237089 20,9.7965461 20,12 C20,14.2034539 19.2175352,16.0876291 17.6525822,17.6525822 C16.0876291,19.2175352 14.2034539,20 12,20 C9.7965461,20 7.91237089,19.2175352 6.34741784,17.6525822 C4.78246479,16.0876291 4,14.2034539 4,12 C4,9.7965461 4.77620507,7.91863061 6.3286385,6.36619718 Z M7.45539906,16.5070423 C8.7073615,17.7590047 10.2222133,18.3849765 12,18.3849765 C13.7777867,18.3849765 15.2863788,17.7590047 16.5258216,16.5070423 C17.7652644,15.2550798 18.3849765,13.7527474 18.3849765,12 C18.3849765,10.2472526 17.7652644,8.74492019 16.5258216,7.49295775 C15.2863788,6.24099531 13.7777867,5.61502347 12,5.61502347 C10.2222133,5.61502347 8.71362122,6.24099531 7.4741784,7.49295775 C6.23473559,8.74492019 5.61502347,10.2472526 5.61502347,12 C5.61502347,13.7527474 6.22847587,15.2550798 7.45539906,16.5070423 Z M12.4131455,8.01877934 L12.4131455,12.1877934 L16.0187793,14.3286385 L15.4178404,15.3051643 L11.2112676,12.7887324 L11.2112676,8.01877934 L12.4131455,8.01877934 Z" id="ion-android-time---Ionicons" fill="#5E6369"></path>
        </g>
    </g>
</svg>