<?xml version="1.0" encoding="UTF-8"?>
<svg width="24px" height="24px" viewBox="0 0 24 24" version="1.1" xmlns="http://www.w3.org/2000/svg" xmlns:xlink="http://www.w3.org/1999/xlink">
    <!-- Generator: Sketch 55.2 (78181) - https://sketchapp.com -->
    <title>@1x/icons/small/tw_ico</title>
    <desc>Created with Sketch.</desc>
    <g id="icons/small/tw_ico" stroke="none" stroke-width="1" fill="none" fill-rule="evenodd">
        <g>
            <rect id="bound-copy" fill-opacity="0" fill="#939393" x="0" y="0" width="24" height="24"></rect>
            <path d="M20.515625,6.70703125 C20.0703103,7.39974305 19.4765662,8.01822645 18.734375,8.5625 L18.734375,9.0078125 C18.734375,11.6054817 17.8004651,13.9619035 15.9326172,16.0771484 C14.0647693,18.1923934 11.5846509,19.25 8.4921875,19.25 C6.51301094,19.25 4.68230008,18.7057346 3,17.6171875 C3.39583531,17.6666669 3.68033768,17.6914062 3.85351562,17.6914062 C5.511076,17.6914062 6.99543615,17.1718802 8.30664062,16.1328125 C7.53970971,16.1080728 6.8470083,15.8668643 6.22851562,15.4091797 C5.61002295,14.9514951 5.18945424,14.3639359 4.96679688,13.6464844 C5.26367336,13.6959638 5.48632738,13.7207031 5.63476562,13.7207031 C5.8821627,13.7207031 6.20377406,13.6712245 6.59960938,13.5722656 C5.78319904,13.3990877 5.09668247,12.9847038 4.54003906,12.3291016 C3.98339565,11.6734993 3.70507812,10.9127647 3.70507812,10.046875 L3.70507812,10.0097656 C4.24935168,10.3066421 4.79361707,10.4550781 5.33789062,10.4550781 C4.27408322,9.76236633 3.7421875,8.76042322 3.7421875,7.44921875 C3.7421875,6.83072607 3.90299318,6.23698201 4.22460938,5.66796875 C6.12956682,8.01824092 8.59113074,9.26757738 11.609375,9.41601562 C11.5598956,9.24283768 11.5351562,8.97070498 11.5351562,8.59960938 C11.5351562,7.58528139 11.881507,6.7317743 12.5742188,6.0390625 C13.2669305,5.3463507 14.1204376,5 15.1347656,5 C16.1490936,5 17.0149704,5.38345971 17.7324219,6.15039062 C18.4746131,6.02669209 19.2415325,5.72982006 20.0332031,5.25976562 C19.7858061,6.12565537 19.2539103,6.79361744 18.4375,7.26367188 C19.2044309,7.18945275 19.8971323,7.00390773 20.515625,6.70703125 Z" id="ion-social-twitter---Ionicons" fill="#D4D4D4"></path>
        </g>
    </g>
</svg>