<?xml version="1.0" encoding="UTF-8"?>
<svg width="32px" height="32px" viewBox="0 0 32 32" version="1.1" xmlns="http://www.w3.org/2000/svg" xmlns:xlink="http://www.w3.org/1999/xlink">
    <!-- Generator: Sketch 55.2 (78181) - https://sketchapp.com -->
    <title>@1x/icons/profile_grey_ico</title>
    <desc>Created with Sketch.</desc>
    <g id="icons/profile_grey_ico" stroke="none" stroke-width="1" fill="none" fill-rule="evenodd">
        <g id="icons/profile_ico">
            <rect id="bound" fill-opacity="0" fill="#FFFFFF" x="0" y="0" width="32" height="32"></rect>
            <path d="M15.0079596,7.87599495 C14.5728227,7.87599495 14.1429988,7.95824521 13.718475,8.1227482 C13.2939511,8.28725118 12.9118854,8.49685668 12.5722663,8.75157098 C12.2326473,9.00628527 11.9593642,9.28222162 11.7524088,9.57938831 C11.5454534,9.87655499 11.4419773,10.1577978 11.4419773,10.4231252 L11.4419773,12.9702554 C11.4419773,13.4690709 11.5666793,14.1058471 11.8160871,14.8806031 C12.0654948,15.6553591 12.4555202,16.25499 12.986175,16.6795139 C13.1241453,16.7856448 13.2276214,16.9209598 13.2966065,17.0854627 C13.3655916,17.2499657 13.3894707,17.4224259 13.3682445,17.6028486 C13.3364053,17.7726581 13.2700744,17.9291989 13.16925,18.0724757 C13.0684256,18.2157525 12.9384171,18.3245351 12.7792207,18.3988268 L8.30582318,20.5161288 C8.24214461,20.537355 8.15458788,20.5877664 8.04315038,20.6673647 C7.93171287,20.7469629 7.87599495,20.8928907 7.87599495,21.1051527 L7.87599495,22.1399243 L22.1240048,22.1240048 L22.1240048,21.1369918 C22.1240048,20.8610513 22.0576739,20.6885911 21.9250102,20.619606 C21.7923465,20.5506208 21.7207092,20.5161288 21.7100961,20.5161288 L17.2685377,18.4147463 C17.1093413,18.3404547 16.9766796,18.2316721 16.8705486,18.0883953 C16.7644177,17.9451185 16.7007401,17.7832712 16.6795139,17.6028486 C16.6582877,17.4224259 16.6821668,17.2499657 16.7511519,17.0854627 C16.820137,16.9209598 16.9236132,16.7856448 17.0615834,16.6795139 C17.6134644,16.25499 18.0034898,15.6527059 18.2316714,14.8726433 C18.4598529,14.0925808 18.573942,13.4584578 18.573942,12.9702554 L18.573942,10.4231252 C18.573942,10.1471847 18.4678126,9.86063542 18.2555507,9.56346874 C18.0432888,9.26630206 17.7700057,8.99301894 17.4356932,8.74361119 C17.1013806,8.49420344 16.7193149,8.28725118 16.2894845,8.1227482 C15.8596542,7.95824521 15.4324835,7.87599495 15.0079596,7.87599495 Z M15.0079596,6.85714286 C15.5704537,6.85714286 16.1249796,6.96327222 16.6715541,7.17553414 C17.2181285,7.38779605 17.7063236,7.6637324 18.136154,8.00335147 C18.5659843,8.34297053 18.9162113,8.72503625 19.1868452,9.14956008 C19.4574791,9.57408391 19.5927941,9.99860137 19.5927941,10.4231252 L19.5927941,12.9702554 C19.5927941,13.2780352 19.5609553,13.6335686 19.4972767,14.0368662 C19.4335981,14.4401639 19.3274688,14.8514152 19.1788854,15.2706324 C19.0303021,15.6898497 18.8339627,16.0931413 18.5898615,16.4805193 C18.3457603,16.8678973 18.0485981,17.1995516 17.698366,17.4754921 L22.1399243,19.5927941 L22.6413906,19.8713864 C22.9757031,20.0571156 23.1428569,20.2985599 23.1428569,20.5957266 L23.1428569,22.1399243 C23.1428569,22.4158648 23.0446872,22.6520027 22.8483449,22.8483449 C22.6520027,23.0446872 22.4158648,23.1428569 22.1399243,23.1428569 L7.87599495,23.1428569 C7.58944137,23.1428569 7.34799706,23.0446872 7.15165479,22.8483449 C6.95531252,22.6520027 6.85714286,22.4158648 6.85714286,22.1399243 L6.85714286,20.5957266 C6.85714286,20.3197861 7.02694984,20.0836483 7.36656891,19.887306 L7.87599495,19.5927941 L12.3493924,17.4754921 C11.9885472,17.1889385 11.6860785,16.844018 11.4419773,16.4407204 C11.1978761,16.0374228 10.9988835,15.6261715 10.8449936,15.2069542 C10.6911038,14.7877369 10.5823212,14.3791389 10.5186426,13.9811478 C10.454964,13.5831567 10.4231252,13.2461959 10.4231252,12.9702554 L10.4231252,10.4231252 C10.4231252,9.99860137 10.5557869,9.57408391 10.8211143,9.14956008 C11.0864417,8.72503625 11.4340154,8.34297053 11.8638457,8.00335147 C12.2936761,7.6637324 12.7845244,7.38779605 13.3364054,7.17553414 C13.8882864,6.96327222 14.4454656,6.85714286 15.0079596,6.85714286 Z" id="User---simple-line-icons" fill="#72777E"></path>
        </g>
    </g>
</svg>