<?xml version="1.0" encoding="UTF-8"?>
<svg width="42px" height="42px" viewBox="0 0 42 42" version="1.1" xmlns="http://www.w3.org/2000/svg" xmlns:xlink="http://www.w3.org/1999/xlink">
    <!-- Generator: Sketch 55.2 (78181) - https://sketchapp.com -->
    <title>@1x/icons/profile_ico copy</title>
    <desc>Created with Sketch.</desc>
    <g id="icons/profile_ico-copy" stroke="none" stroke-width="1" fill="none" fill-rule="evenodd">
        <g id="icons/profile_ico" fill="#FFFFFF" fill-opacity="0">
            <rect id="bound" x="0" y="0" width="42" height="42"></rect>
        </g>
        <g id="wedding-planning" transform="translate(11.000000, 11.000000)" fill="#72777E">
            <path d="M19.5233143,0.0129714286 L4.76885714,0.0129714286 C4.53211429,0.0129714286 4.34028571,0.2048 4.34028571,0.441542857 L4.34028571,8.96171429 L0.428571429,8.96171429 C0.191828571,8.96171429 0,9.15354286 0,9.39028571 L0,16.6544571 C0,18.0873714 1.16571429,19.2532571 2.59868571,19.2532571 C2.6356,19.2532571 17.3531429,19.2532571 17.3531429,19.2532571 C18.7860571,19.2532571 19.9519429,18.0874286 19.9519429,16.6544571 L19.9519429,0.441542857 C19.9519429,0.2048 19.7600571,0.0129714286 19.5233143,0.0129714286 Z M0.857142857,16.6544571 L0.857142857,9.81885714 L4.34028571,9.81885714 L4.34028571,16.6544571 C4.34028571,17.6147429 3.55902857,18.3961143 2.59862857,18.3961143 C1.6384,18.3961143 0.857142857,17.6147429 0.857142857,16.6544571 Z M19.0947429,16.6544571 C19.0947429,17.6147429 18.3134857,18.3961143 17.3530857,18.3961143 L4.52588571,18.3961143 C4.94297143,17.9349714 5.19742857,17.3237714 5.19742857,16.6544571 L5.19742857,0.870114286 L19.0947429,0.870114286 L19.0947429,16.6544571 Z" id="Shape" fill-rule="nonzero"></path>
            <g id="Group" transform="translate(8.000000, 5.000000)">
                <path d="M0.556475515,0.714285714 L7.68878509,0.714285714 C7.99618217,0.714285714 8.24526061,0.554428571 8.24526061,0.357142857 C8.24526061,0.159857143 7.99618217,0 7.68878509,0 L0.556475515,0 C0.249078441,0 0,0.159857143 0,0.357142857 C0,0.554428571 0.249152637,0.714285714 0.556475515,0.714285714 Z" id="Path"></path>
                <path d="M0.556475515,4.71428571 L7.68878509,4.71428571 C7.99618217,4.71428571 8.24526061,4.55442857 8.24526061,4.35714286 C8.24526061,4.15985714 7.99618217,4 7.68878509,4 L0.556475515,4 C0.249078441,4 0,4.15985714 0,4.35714286 C0,4.55442857 0.249152637,4.71428571 0.556475515,4.71428571 Z" id="Path"></path>
                <path d="M0.556475515,8.71428571 L7.68878509,8.71428571 C7.99618217,8.71428571 8.24526061,8.55442857 8.24526061,8.35714286 C8.24526061,8.15985714 7.99618217,8 7.68878509,8 L0.556475515,8 C0.249078441,8 0,8.15985714 0,8.35714286 C0,8.55438095 0.249152637,8.71428571 0.556475515,8.71428571 Z" id="Path"></path>
            </g>
        </g>
    </g>
</svg>