<?xml version="1.0" encoding="UTF-8"?>
<svg width="42px" height="42px" viewBox="0 0 42 42" version="1.1" xmlns="http://www.w3.org/2000/svg" xmlns:xlink="http://www.w3.org/1999/xlink">
    <!-- Generator: Sketch 55.2 (78181) - https://sketchapp.com -->
    <title>@1x/icons/search_ico</title>
    <desc>Created with Sketch.</desc>
    <g id="icons/search_ico" stroke="none" stroke-width="1" fill="none" fill-rule="evenodd">
        <g>
            <rect id="bound" fill-opacity="0" fill="#FFFFFF" x="0" y="0" width="42" height="42"></rect>
            <path d="M31.765625,30.546875 C31.9218758,30.7187509 32,30.9218738 32,31.15625 C32,31.3906262 31.9218758,31.5937491 31.765625,31.765625 C31.5937491,31.9218758 31.3906262,32 31.15625,32 C30.9218738,32 30.7265633,31.9218758 30.5703125,31.765625 L25.7421875,26.9375 C24.0703041,28.3125069 22.1562608,29 20,29 C17.5156126,29 15.39454,28.1211025 13.6367188,26.3632812 C11.8788975,24.60546 11,22.4843874 11,20 C11,17.5156126 11.8788975,15.39454 13.6367188,13.6367188 C15.39454,11.8788975 17.5156126,11 20,11 C22.4843874,11 24.60546,11.8788975 26.3632812,13.6367188 C28.1211025,15.39454 29,17.5156126 29,20 C29,22.1562608 28.3125069,24.0703041 26.9375,25.7421875 L31.765625,30.546875 Z M22.8359375,26.75 C23.7109419,26.3749981 24.4882779,25.8476596 25.1679688,25.1679688 C25.8476596,24.4882779 26.3749981,23.7109419 26.75,22.8359375 C27.1250019,21.945308 27.3125,21.000005 27.3125,20 C27.3125,18.999995 27.1250019,18.054692 26.75,17.1640625 C26.3749981,16.2890581 25.8476596,15.5117221 25.1679688,14.8320312 C24.4882779,14.1523404 23.7109419,13.6250019 22.8359375,13.25 C21.945308,12.8749981 21.000005,12.6875 20,12.6875 C18.999995,12.6875 18.054692,12.8749981 17.1640625,13.25 C16.2890581,13.6250019 15.5117221,14.1523404 14.8320312,14.8320312 C14.1523404,15.5117221 13.6328143,16.2890581 13.2734375,17.1640625 C12.8828105,18.054692 12.6875,18.999995 12.6875,20 C12.6875,21.000005 12.8828105,21.945308 13.2734375,22.8359375 C13.6328143,23.7109419 14.1523404,24.4882779 14.8320312,25.1679688 C15.5117221,25.8476596 16.2890581,26.3749981 17.1640625,26.75 C18.054692,27.1250019 18.999995,27.3125 20,27.3125 C21.000005,27.3125 21.945308,27.1250019 22.8359375,26.75 Z" id="" fill="#00ABC7"></path>
        </g>
    </g>
</svg>