<?xml version="1.0" encoding="UTF-8"?>
<svg width="26px" height="26px" viewBox="0 0 26 26" version="1.1" xmlns="http://www.w3.org/2000/svg" xmlns:xlink="http://www.w3.org/1999/xlink">
    <!-- Generator: Sketch 55.2 (78181) - https://sketchapp.com -->
    <title>@1x/icons/24/search</title>
    <desc>Created with Sketch.</desc>
    <g id="icons/24/search" stroke="none" stroke-width="1" fill="none" fill-rule="evenodd">
        <rect id="Rectangle-5" x="0" y="0" width="26" height="26"></rect>
        <path d="M21.7991071,20.7544643 C21.9330364,20.9017865 22,21.0758919 22,21.2767857 C22,21.4776796 21.9330364,21.651785 21.7991071,21.7991071 C21.651785,21.9330364 21.4776796,22 21.2767857,22 C21.0758919,22 20.9084828,21.9330364 20.7745536,21.7991071 L16.6361607,17.6607143 C15.2031178,18.8392916 13.5625092,19.4285714 11.7142857,19.4285714 C9.58481078,19.4285714 7.7667486,18.6752307 6.26004464,17.1685268 C4.75334068,15.6618228 4,13.8437606 4,11.7142857 C4,9.58481078 4.75334068,7.7667486 6.26004464,6.26004464 C7.7667486,4.75334068 9.58481078,4 11.7142857,4 C13.8437606,4 15.6618228,4.75334068 17.1685268,6.26004464 C18.6752307,7.7667486 19.4285714,9.58481078 19.4285714,11.7142857 C19.4285714,13.5625092 18.8392916,15.2031178 17.6607143,16.6361607 L21.7991071,20.7544643 Z M14.1450893,17.5 C14.895093,17.1785698 15.561381,16.7265654 16.1439732,16.1439732 C16.7265654,15.561381 17.1785698,14.895093 17.5,14.1450893 C17.8214302,13.3816926 17.9821429,12.5714329 17.9821429,11.7142857 C17.9821429,10.8571386 17.8214302,10.0468788 17.5,9.28348214 C17.1785698,8.53347839 16.7265654,7.86719041 16.1439732,7.28459821 C15.561381,6.70200602 14.895093,6.25000161 14.1450893,5.92857143 C13.3816926,5.60714125 12.5714329,5.44642857 11.7142857,5.44642857 C10.8571386,5.44642857 10.0468788,5.60714125 9.28348214,5.92857143 C8.53347839,6.25000161 7.86719041,6.70200602 7.28459821,7.28459821 C6.70200602,7.86719041 6.25669797,8.53347839 5.94866071,9.28348214 C5.61383761,10.0468788 5.44642857,10.8571386 5.44642857,11.7142857 C5.44642857,12.5714329 5.61383761,13.3816926 5.94866071,14.1450893 C6.25669797,14.895093 6.70200602,15.561381 7.28459821,16.1439732 C7.86719041,16.7265654 8.53347839,17.1785698 9.28348214,17.5 C10.0468788,17.8214302 10.8571386,17.9821429 11.7142857,17.9821429 C12.5714329,17.9821429 13.3816926,17.8214302 14.1450893,17.5 Z" id="search---anticon" fill="#000000"></path>
    </g>
</svg>